M48
; DRILL file {KiCad (6.0.0)} date Tue Jul 12 22:28:26 2022
; FORMAT={-:-/ absolute / metric / decimal}
; #@! TF.CreationDate,2022-07-12T22:28:26+12:00
; #@! TF.GenerationSoftware,Kicad,Pcbnew,(6.0.0)
; #@! TF.FileFunction,Plated,1,2,PTH
FMAT,2
METRIC
; #@! TA.AperFunction,Plated,PTH,ViaDrill
T1C0.300
; #@! TA.AperFunction,Plated,PTH,ComponentDrill
T2C2.200
; #@! TA.AperFunction,Plated,PTH,ComponentDrill
T3C3.200
%
G90
G05
T1
X183.896Y-124.46
X183.896Y-125.73
X183.896Y-127.0
X183.896Y-128.27
X183.896Y-129.54
X183.896Y-130.81
X183.896Y-132.08
X183.896Y-133.35
X183.896Y-134.62
X183.896Y-135.89
X183.896Y-137.16
X183.896Y-138.43
X183.896Y-139.7
X183.896Y-140.97
X183.896Y-142.24
X183.896Y-143.51
X183.896Y-144.78
X183.896Y-146.05
X183.896Y-147.32
X183.896Y-148.59
X183.896Y-149.86
X183.896Y-151.13
X183.896Y-152.4
X183.896Y-153.67
X183.896Y-154.94
X184.404Y-123.444
X184.404Y-155.956
X184.89Y-151.55
X184.89Y-153.85
X184.96Y-125.55
X184.96Y-127.85
X185.42Y-122.936
X185.42Y-132.08
X185.42Y-134.62
X185.42Y-137.16
X185.42Y-139.7
X185.42Y-142.24
X185.42Y-144.78
X185.42Y-147.32
X185.42Y-156.464
X186.51Y-149.93
X186.51Y-155.47
X186.58Y-123.93
X186.58Y-129.47
X186.69Y-122.936
X186.69Y-156.464
X187.96Y-122.936
X187.96Y-132.08
X187.96Y-134.62
X187.96Y-137.16
X187.96Y-139.7
X187.96Y-142.24
X187.96Y-144.78
X187.96Y-147.32
X187.96Y-156.464
X188.81Y-149.93
X188.81Y-155.47
X188.88Y-123.93
X188.88Y-129.47
X189.23Y-122.936
X189.23Y-156.464
X189.78Y-138.745
X189.78Y-140.655
X190.43Y-151.55
X190.43Y-153.85
X190.5Y-122.936
X190.5Y-125.55
X190.5Y-127.85
X190.5Y-132.08
X190.5Y-134.62
X190.5Y-144.78
X190.5Y-147.32
X190.5Y-156.464
X191.13Y-137.395
X191.13Y-142.005
X191.77Y-122.936
X191.77Y-156.464
X192.82Y-132.73
X192.82Y-133.95
X192.82Y-145.45
X192.82Y-146.67
X193.04Y-122.936
X193.04Y-124.46
X193.04Y-127.0
X193.04Y-129.54
X193.04Y-137.395
X193.04Y-142.005
X193.04Y-149.86
X193.04Y-152.4
X193.04Y-154.94
X193.04Y-156.464
X193.69Y-131.86
X193.69Y-134.82
X193.69Y-144.58
X193.69Y-147.54
X194.31Y-122.936
X194.31Y-156.464
X194.91Y-131.86
X194.91Y-134.82
X194.91Y-144.58
X194.91Y-147.54
X195.58Y-122.936
X195.58Y-124.46
X195.58Y-127.0
X195.58Y-129.54
X195.58Y-149.86
X195.58Y-152.4
X195.58Y-154.94
X195.58Y-156.464
X195.78Y-132.73
X195.78Y-133.95
X195.78Y-145.45
X195.78Y-146.67
X196.85Y-122.936
X196.85Y-156.464
X198.12Y-122.936
X198.12Y-124.46
X198.12Y-127.0
X198.12Y-129.54
X198.12Y-132.08
X198.12Y-147.32
X198.12Y-149.86
X198.12Y-152.4
X198.12Y-154.94
X198.12Y-156.464
X199.39Y-122.936
X199.39Y-156.464
X200.66Y-122.936
X200.66Y-124.46
X200.66Y-127.0
X200.66Y-129.54
X200.66Y-132.08
X200.66Y-147.32
X200.66Y-149.86
X200.66Y-152.4
X200.66Y-154.94
X200.66Y-156.464
X201.93Y-122.936
X201.93Y-156.464
X203.2Y-122.936
X203.2Y-124.46
X203.2Y-127.0
X203.2Y-129.54
X203.2Y-132.08
X203.2Y-147.32
X203.2Y-149.86
X203.2Y-152.4
X203.2Y-154.94
X203.2Y-156.464
X204.47Y-122.936
X204.47Y-156.464
X205.54Y-132.73
X205.54Y-133.95
X205.54Y-145.45
X205.54Y-146.67
X205.74Y-122.936
X205.74Y-124.46
X205.74Y-127.0
X205.74Y-129.54
X205.74Y-149.86
X205.74Y-152.4
X205.74Y-154.94
X205.74Y-156.464
X206.41Y-131.86
X206.41Y-134.82
X206.41Y-144.58
X206.41Y-147.54
X207.01Y-122.936
X207.01Y-156.464
X207.63Y-131.86
X207.63Y-134.82
X207.63Y-144.58
X207.63Y-147.54
X208.205Y-137.395
X208.205Y-142.005
X208.28Y-122.936
X208.28Y-124.46
X208.28Y-127.0
X208.28Y-129.54
X208.28Y-149.86
X208.28Y-152.4
X208.28Y-154.94
X208.28Y-156.464
X208.5Y-132.73
X208.5Y-133.95
X208.5Y-145.45
X208.5Y-146.67
X209.55Y-122.936
X209.55Y-156.464
X210.115Y-137.395
X210.115Y-142.005
X210.82Y-122.936
X210.82Y-132.08
X210.82Y-134.62
X210.82Y-144.78
X210.82Y-147.32
X210.82Y-156.464
X210.89Y-125.55
X210.89Y-127.85
X210.89Y-151.55
X210.89Y-153.85
X211.465Y-138.745
X211.465Y-140.655
X212.09Y-122.936
X212.09Y-156.464
X212.51Y-123.93
X212.51Y-129.47
X212.51Y-149.93
X212.51Y-155.47
X213.36Y-122.936
X213.36Y-132.08
X213.36Y-134.62
X213.36Y-137.16
X213.36Y-139.7
X213.36Y-142.24
X213.36Y-144.78
X213.36Y-147.32
X213.36Y-156.464
X214.63Y-122.936
X214.63Y-156.464
X214.81Y-123.93
X214.81Y-129.47
X214.81Y-149.93
X214.81Y-155.47
X215.9Y-122.936
X215.9Y-132.08
X215.9Y-134.62
X215.9Y-137.16
X215.9Y-139.7
X215.9Y-142.24
X215.9Y-144.78
X215.9Y-147.32
X215.9Y-156.464
X216.43Y-125.55
X216.43Y-127.85
X216.43Y-151.55
X216.43Y-153.85
X216.916Y-123.444
X216.916Y-155.956
X217.424Y-124.46
X217.424Y-125.984
X217.424Y-127.0
X217.424Y-128.27
X217.424Y-129.54
X217.424Y-130.81
X217.424Y-132.08
X217.424Y-133.35
X217.424Y-134.62
X217.424Y-135.89
X217.424Y-137.16
X217.424Y-138.43
X217.424Y-139.7
X217.424Y-140.97
X217.424Y-142.24
X217.424Y-143.51
X217.424Y-144.78
X217.424Y-146.05
X217.424Y-147.32
X217.424Y-148.59
X217.424Y-149.86
X217.424Y-151.13
X217.424Y-152.4
X217.424Y-153.67
X217.424Y-154.94
T2
X194.3Y-133.34
X194.3Y-146.06
X207.02Y-133.34
X207.02Y-146.06
T3
X187.66Y-126.7
X187.66Y-152.7
X192.16Y-139.7
X209.16Y-139.7
X213.66Y-126.7
X213.66Y-152.7
T0
M30
