%TF.GenerationSoftware,KiCad,Pcbnew,(6.0.0)*%
%TF.CreationDate,2022-07-12T22:28:23+12:00*%
%TF.ProjectId,MOTOR MOUNT FACEPLATE,4d4f544f-5220-44d4-9f55-4e5420464143,0A*%
%TF.SameCoordinates,Original*%
%TF.FileFunction,Copper,L2,Bot*%
%TF.FilePolarity,Positive*%
%FSLAX46Y46*%
G04 Gerber Fmt 4.6, Leading zero omitted, Abs format (unit mm)*
G04 Created by KiCad (PCBNEW (6.0.0)) date 2022-07-12 22:28:23*
%MOMM*%
%LPD*%
G01*
G04 APERTURE LIST*
%TA.AperFunction,ComponentPad*%
%ADD10C,2.600000*%
%TD*%
%TA.AperFunction,ConnectorPad*%
%ADD11C,7.100000*%
%TD*%
%TA.AperFunction,ComponentPad*%
%ADD12C,3.600000*%
%TD*%
%TA.AperFunction,ViaPad*%
%ADD13C,0.600000*%
%TD*%
G04 APERTURE END LIST*
D10*
%TO.P,H10,1,1*%
%TO.N,GND*%
X194300000Y-133340000D03*
%TD*%
%TO.P,H6,1,1*%
%TO.N,GND*%
X194300000Y-146060000D03*
%TD*%
D11*
%TO.P,H3,1,1*%
%TO.N,GND*%
X187660000Y-152700000D03*
D12*
X187660000Y-152700000D03*
%TD*%
D10*
%TO.P,H8,1,1*%
%TO.N,GND*%
X207020000Y-133340000D03*
%TD*%
D12*
%TO.P,H2,1,1*%
%TO.N,GND*%
X213660000Y-152700000D03*
D11*
X213660000Y-152700000D03*
%TD*%
D12*
%TO.P,H5,1,1*%
%TO.N,GND*%
X213660000Y-126700000D03*
D11*
X213660000Y-126700000D03*
%TD*%
%TO.P,H4,1,1*%
%TO.N,GND*%
X187660000Y-126700000D03*
D12*
X187660000Y-126700000D03*
%TD*%
D10*
%TO.P,H7,1,1*%
%TO.N,GND*%
X207020000Y-146060000D03*
%TD*%
D12*
%TO.P,H9,1,1*%
%TO.N,GND*%
X209160000Y-139700000D03*
%TD*%
%TO.P,H1,1,1*%
%TO.N,GND*%
X192160000Y-139700000D03*
%TD*%
D13*
%TO.N,GND*%
X217424000Y-130810000D03*
X185420000Y-147320000D03*
X185420000Y-134620000D03*
X208280000Y-127000000D03*
X198120000Y-122936000D03*
X188810000Y-155470000D03*
X205740000Y-129540000D03*
X208500000Y-132730000D03*
X198120000Y-132080000D03*
X214810000Y-155470000D03*
X214810000Y-123930000D03*
X184960000Y-127850000D03*
X213360000Y-142240000D03*
X217424000Y-128270000D03*
X205740000Y-152400000D03*
X183896000Y-147320000D03*
X210890000Y-151550000D03*
X183896000Y-125730000D03*
X210820000Y-147320000D03*
X210115000Y-137395000D03*
X208280000Y-124460000D03*
X208280000Y-154940000D03*
X195580000Y-122936000D03*
X210890000Y-127850000D03*
X208280000Y-156464000D03*
X190500000Y-127850000D03*
X205740000Y-127000000D03*
X217424000Y-148590000D03*
X217424000Y-140970000D03*
X183896000Y-154940000D03*
X193040000Y-124460000D03*
X217424000Y-137160000D03*
X191130000Y-142005000D03*
X215900000Y-156464000D03*
X213360000Y-134620000D03*
X183896000Y-137160000D03*
X185420000Y-156464000D03*
X214810000Y-149930000D03*
X210820000Y-132080000D03*
X217424000Y-153670000D03*
X208500000Y-133950000D03*
X185420000Y-122936000D03*
X208205000Y-137395000D03*
X200660000Y-122936000D03*
X200660000Y-124460000D03*
X217424000Y-138430000D03*
X193690000Y-131860000D03*
X189230000Y-156464000D03*
X190500000Y-144780000D03*
X185420000Y-132080000D03*
X198120000Y-124460000D03*
X217424000Y-135890000D03*
X183896000Y-153670000D03*
X217424000Y-143510000D03*
X205740000Y-156464000D03*
X194910000Y-147540000D03*
X200660000Y-154940000D03*
X208205000Y-142005000D03*
X184960000Y-125550000D03*
X204470000Y-156464000D03*
X195580000Y-129540000D03*
X195580000Y-152400000D03*
X187960000Y-137160000D03*
X186690000Y-122936000D03*
X195780000Y-145450000D03*
X183896000Y-135890000D03*
X209550000Y-122936000D03*
X217424000Y-147320000D03*
X217424000Y-151130000D03*
X190430000Y-153850000D03*
X190500000Y-134620000D03*
X183896000Y-129540000D03*
X203200000Y-124460000D03*
X195780000Y-132730000D03*
X186580000Y-129470000D03*
X190500000Y-132080000D03*
X213360000Y-132080000D03*
X205540000Y-145450000D03*
X183896000Y-124460000D03*
X216430000Y-153850000D03*
X195580000Y-154940000D03*
X201930000Y-122936000D03*
X193040000Y-127000000D03*
X183896000Y-149860000D03*
X213360000Y-122936000D03*
X203200000Y-149860000D03*
X215900000Y-137160000D03*
X205740000Y-149860000D03*
X212510000Y-123930000D03*
X195780000Y-133950000D03*
X193690000Y-147540000D03*
X190500000Y-156464000D03*
X208500000Y-146670000D03*
X205540000Y-133950000D03*
X190500000Y-147320000D03*
X217424000Y-134620000D03*
X205540000Y-132730000D03*
X207630000Y-131860000D03*
X193040000Y-152400000D03*
X212090000Y-156464000D03*
X198120000Y-154940000D03*
X194910000Y-144580000D03*
X211465000Y-138745000D03*
X186510000Y-149930000D03*
X183896000Y-128270000D03*
X191770000Y-122936000D03*
X198120000Y-152400000D03*
X212090000Y-122936000D03*
X185420000Y-142240000D03*
X210820000Y-122936000D03*
X217424000Y-144780000D03*
X187960000Y-139700000D03*
X185420000Y-139700000D03*
X206410000Y-134820000D03*
X208280000Y-122936000D03*
X205740000Y-122936000D03*
X183896000Y-146050000D03*
X217424000Y-127000000D03*
X210115000Y-142005000D03*
X210890000Y-125550000D03*
X195580000Y-156464000D03*
X203200000Y-152400000D03*
X198120000Y-156464000D03*
X184404000Y-155956000D03*
X183896000Y-127000000D03*
X190500000Y-122936000D03*
X186580000Y-123930000D03*
X200660000Y-152400000D03*
X187960000Y-142240000D03*
X207630000Y-134820000D03*
X187960000Y-156464000D03*
X183896000Y-139700000D03*
X215900000Y-142240000D03*
X200660000Y-156464000D03*
X189230000Y-122936000D03*
X188810000Y-149930000D03*
X216916000Y-155956000D03*
X206410000Y-131860000D03*
X195580000Y-127000000D03*
X186510000Y-155470000D03*
X195580000Y-149860000D03*
X212510000Y-155470000D03*
X183896000Y-138430000D03*
X184404000Y-123444000D03*
X205540000Y-146670000D03*
X216430000Y-125550000D03*
X210820000Y-156464000D03*
X207010000Y-122936000D03*
X217424000Y-154940000D03*
X217424000Y-132080000D03*
X212510000Y-149930000D03*
X195580000Y-124460000D03*
X210820000Y-144780000D03*
X193040000Y-154940000D03*
X215900000Y-134620000D03*
X203200000Y-129540000D03*
X217424000Y-125984000D03*
X203200000Y-147320000D03*
X193690000Y-144580000D03*
X188880000Y-123930000D03*
X210890000Y-153850000D03*
X187960000Y-144780000D03*
X217424000Y-152400000D03*
X187960000Y-147320000D03*
X203200000Y-127000000D03*
X183896000Y-142240000D03*
X213360000Y-147320000D03*
X200660000Y-127000000D03*
X217424000Y-133350000D03*
X213360000Y-156464000D03*
X213360000Y-144780000D03*
X193040000Y-122936000D03*
X217424000Y-146050000D03*
X193040000Y-129540000D03*
X192820000Y-133950000D03*
X216430000Y-151550000D03*
X208500000Y-145450000D03*
X187960000Y-132080000D03*
X192820000Y-145450000D03*
X215900000Y-139700000D03*
X215900000Y-132080000D03*
X198120000Y-147320000D03*
X213360000Y-137160000D03*
X185420000Y-144780000D03*
X208280000Y-149860000D03*
X216430000Y-127850000D03*
X200660000Y-149860000D03*
X183896000Y-152400000D03*
X214810000Y-129470000D03*
X200660000Y-132080000D03*
X208280000Y-152400000D03*
X183896000Y-140970000D03*
X201930000Y-156464000D03*
X198120000Y-129540000D03*
X194910000Y-131860000D03*
X211465000Y-140655000D03*
X203200000Y-154940000D03*
X183896000Y-132080000D03*
X194310000Y-122936000D03*
X203200000Y-156464000D03*
X183896000Y-148590000D03*
X204470000Y-122936000D03*
X185420000Y-137160000D03*
X217424000Y-129540000D03*
X183896000Y-151130000D03*
X193690000Y-134820000D03*
X217424000Y-149860000D03*
X207630000Y-144580000D03*
X193040000Y-156464000D03*
X213360000Y-139700000D03*
X190500000Y-125550000D03*
X191770000Y-156464000D03*
X183896000Y-130810000D03*
X184890000Y-151550000D03*
X210820000Y-134620000D03*
X183896000Y-133350000D03*
X192820000Y-146670000D03*
X215900000Y-147320000D03*
X194910000Y-134820000D03*
X186690000Y-156464000D03*
X199390000Y-156464000D03*
X184890000Y-153850000D03*
X188880000Y-129470000D03*
X217424000Y-124460000D03*
X200660000Y-129540000D03*
X183896000Y-134620000D03*
X205740000Y-154940000D03*
X215900000Y-122936000D03*
X193040000Y-137395000D03*
X187960000Y-122936000D03*
X200660000Y-147320000D03*
X196850000Y-156464000D03*
X198120000Y-149860000D03*
X206410000Y-147540000D03*
X205740000Y-124460000D03*
X214630000Y-122936000D03*
X189780000Y-140655000D03*
X195780000Y-146670000D03*
X216916000Y-123444000D03*
X191130000Y-137395000D03*
X193040000Y-149860000D03*
X206410000Y-144580000D03*
X198120000Y-127000000D03*
X207010000Y-156464000D03*
X183896000Y-144780000D03*
X189780000Y-138745000D03*
X192820000Y-132730000D03*
X193040000Y-142005000D03*
X209550000Y-156464000D03*
X217424000Y-139700000D03*
X196850000Y-122936000D03*
X207630000Y-147540000D03*
X194310000Y-156464000D03*
X203200000Y-122936000D03*
X214630000Y-156464000D03*
X183896000Y-143510000D03*
X199390000Y-122936000D03*
X187960000Y-134620000D03*
X203200000Y-132080000D03*
X212510000Y-129470000D03*
X190430000Y-151550000D03*
X217424000Y-142240000D03*
X215900000Y-144780000D03*
X208280000Y-129540000D03*
%TD*%
%TA.AperFunction,Conductor*%
%TO.N,GND*%
G36*
X216148227Y-122402518D02*
G01*
X216159642Y-122405143D01*
X216170517Y-122402682D01*
X216181664Y-122402702D01*
X216181664Y-122402863D01*
X216191669Y-122402076D01*
X216263759Y-122406801D01*
X216388475Y-122414975D01*
X216401302Y-122416663D01*
X216619516Y-122460068D01*
X216632016Y-122463418D01*
X216842691Y-122534933D01*
X216854653Y-122539889D01*
X216936954Y-122580475D01*
X217054180Y-122638284D01*
X217065386Y-122644753D01*
X217250385Y-122768365D01*
X217260639Y-122776233D01*
X217427914Y-122922930D01*
X217437069Y-122932085D01*
X217583767Y-123099361D01*
X217591635Y-123109615D01*
X217715247Y-123294614D01*
X217721716Y-123305820D01*
X217820111Y-123505346D01*
X217825067Y-123517309D01*
X217896581Y-123727980D01*
X217899933Y-123740489D01*
X217943336Y-123958691D01*
X217945026Y-123971530D01*
X217957891Y-124167816D01*
X217957101Y-124177628D01*
X217957375Y-124177628D01*
X217957355Y-124188778D01*
X217954857Y-124199642D01*
X217957317Y-124210514D01*
X217957317Y-124210516D01*
X217957559Y-124211583D01*
X217960000Y-124233432D01*
X217960000Y-155166040D01*
X217957482Y-155188227D01*
X217954857Y-155199642D01*
X217957318Y-155210517D01*
X217957298Y-155221664D01*
X217957137Y-155221664D01*
X217957924Y-155231669D01*
X217945026Y-155428469D01*
X217943336Y-155441309D01*
X217899933Y-155659511D01*
X217896581Y-155672020D01*
X217825067Y-155882691D01*
X217820111Y-155894654D01*
X217721716Y-156094180D01*
X217715247Y-156105386D01*
X217591635Y-156290385D01*
X217583767Y-156300639D01*
X217451003Y-156452027D01*
X217437070Y-156467914D01*
X217427915Y-156477069D01*
X217260639Y-156623767D01*
X217250385Y-156631635D01*
X217065386Y-156755247D01*
X217054180Y-156761716D01*
X216875697Y-156849734D01*
X216854654Y-156860111D01*
X216842692Y-156865067D01*
X216632016Y-156936582D01*
X216619516Y-156939932D01*
X216401302Y-156983337D01*
X216388477Y-156985025D01*
X216192181Y-156997891D01*
X216182372Y-156997101D01*
X216182372Y-156997375D01*
X216171222Y-156997355D01*
X216160358Y-156994857D01*
X216149486Y-156997317D01*
X216149484Y-156997317D01*
X216148417Y-156997559D01*
X216126568Y-157000000D01*
X185193960Y-157000000D01*
X185171773Y-156997482D01*
X185160358Y-156994857D01*
X185149483Y-156997318D01*
X185138336Y-156997298D01*
X185138336Y-156997137D01*
X185128331Y-156997924D01*
X185056241Y-156993199D01*
X184931525Y-156985025D01*
X184918698Y-156983337D01*
X184700484Y-156939932D01*
X184687984Y-156936582D01*
X184477308Y-156865067D01*
X184465346Y-156860111D01*
X184444304Y-156849734D01*
X184265820Y-156761716D01*
X184254614Y-156755247D01*
X184069615Y-156631635D01*
X184059361Y-156623767D01*
X183892085Y-156477069D01*
X183882930Y-156467914D01*
X183868997Y-156452027D01*
X183736233Y-156300639D01*
X183728365Y-156290385D01*
X183604753Y-156105386D01*
X183598284Y-156094180D01*
X183499889Y-155894654D01*
X183494933Y-155882691D01*
X183423419Y-155672020D01*
X183420067Y-155659511D01*
X183376664Y-155441309D01*
X183374974Y-155428470D01*
X183362109Y-155232184D01*
X183362899Y-155222372D01*
X183362625Y-155222372D01*
X183362645Y-155211222D01*
X183365143Y-155200358D01*
X183362683Y-155189486D01*
X183362683Y-155189484D01*
X183362441Y-155188417D01*
X183360000Y-155166568D01*
X183360000Y-143347523D01*
X194355607Y-143347523D01*
X194359006Y-143358140D01*
X194365614Y-143378784D01*
X194367847Y-143386945D01*
X194375150Y-143418962D01*
X194380217Y-143425320D01*
X194381707Y-143429061D01*
X194381723Y-143429112D01*
X194381726Y-143429118D01*
X194383425Y-143434426D01*
X194383790Y-143435042D01*
X194384922Y-143436229D01*
X194385315Y-143437103D01*
X194385588Y-143436927D01*
X194665533Y-143870629D01*
X194665540Y-143870639D01*
X194666494Y-143872117D01*
X194979198Y-144288235D01*
X195320735Y-144681033D01*
X195689371Y-145048517D01*
X196083236Y-145388823D01*
X196500330Y-145700224D01*
X196938537Y-145981138D01*
X197395632Y-146230140D01*
X197397222Y-146230864D01*
X197397227Y-146230867D01*
X197541765Y-146296726D01*
X197869295Y-146445966D01*
X197870931Y-146446575D01*
X197870941Y-146446579D01*
X198355472Y-146626907D01*
X198357122Y-146627521D01*
X198358815Y-146628017D01*
X198854951Y-146773389D01*
X198854959Y-146773391D01*
X198856638Y-146773883D01*
X198858363Y-146774257D01*
X198858365Y-146774258D01*
X199363573Y-146883934D01*
X199363579Y-146883935D01*
X199365306Y-146884310D01*
X199367051Y-146884560D01*
X199367060Y-146884562D01*
X199575046Y-146914405D01*
X199880546Y-146958241D01*
X200399742Y-146995300D01*
X200920258Y-146995300D01*
X201439454Y-146958241D01*
X201744954Y-146914405D01*
X201952940Y-146884562D01*
X201952949Y-146884560D01*
X201954694Y-146884310D01*
X201956421Y-146883935D01*
X201956427Y-146883934D01*
X202461635Y-146774258D01*
X202461637Y-146774257D01*
X202463362Y-146773883D01*
X202465041Y-146773391D01*
X202465049Y-146773389D01*
X202961185Y-146628017D01*
X202962878Y-146627521D01*
X202964528Y-146626907D01*
X203449059Y-146446579D01*
X203449069Y-146446575D01*
X203450705Y-146445966D01*
X203778235Y-146296726D01*
X203922773Y-146230867D01*
X203922778Y-146230864D01*
X203924368Y-146230140D01*
X204381463Y-145981138D01*
X204819670Y-145700224D01*
X205236764Y-145388823D01*
X205630629Y-145048517D01*
X205999265Y-144681033D01*
X206340802Y-144288235D01*
X206653506Y-143872117D01*
X206654460Y-143870639D01*
X206654467Y-143870629D01*
X206933982Y-143437593D01*
X206934273Y-143437781D01*
X206934696Y-143436850D01*
X206935842Y-143435657D01*
X206936210Y-143435042D01*
X206937950Y-143429670D01*
X206939525Y-143425748D01*
X206944694Y-143419285D01*
X206951994Y-143387540D01*
X206954290Y-143379232D01*
X206964331Y-143348236D01*
X206962732Y-143336483D01*
X206960904Y-143323055D01*
X206960000Y-143309705D01*
X206960000Y-136090817D01*
X206960951Y-136077125D01*
X206962851Y-136063517D01*
X206964393Y-136052477D01*
X206954386Y-136021216D01*
X206952152Y-136013051D01*
X206947329Y-135991907D01*
X206944850Y-135981038D01*
X206939783Y-135974680D01*
X206938293Y-135970939D01*
X206938277Y-135970888D01*
X206938274Y-135970882D01*
X206936575Y-135965574D01*
X206936210Y-135964958D01*
X206935078Y-135963771D01*
X206934685Y-135962897D01*
X206934412Y-135963073D01*
X206654467Y-135529371D01*
X206654460Y-135529361D01*
X206653506Y-135527883D01*
X206340802Y-135111765D01*
X205999265Y-134718967D01*
X205630629Y-134351483D01*
X205236764Y-134011177D01*
X204819670Y-133699776D01*
X204381463Y-133418862D01*
X203924368Y-133169860D01*
X203922778Y-133169136D01*
X203922773Y-133169133D01*
X203452305Y-132954763D01*
X203452304Y-132954763D01*
X203450705Y-132954034D01*
X203449069Y-132953425D01*
X203449059Y-132953421D01*
X202964528Y-132773093D01*
X202964526Y-132773092D01*
X202962878Y-132772479D01*
X202877201Y-132747375D01*
X202465049Y-132626611D01*
X202465041Y-132626609D01*
X202463362Y-132626117D01*
X202461635Y-132625742D01*
X201956427Y-132516066D01*
X201956421Y-132516065D01*
X201954694Y-132515690D01*
X201952949Y-132515440D01*
X201952940Y-132515438D01*
X201744954Y-132485595D01*
X201439454Y-132441759D01*
X200920258Y-132404700D01*
X200399742Y-132404700D01*
X199880546Y-132441759D01*
X199575046Y-132485595D01*
X199367060Y-132515438D01*
X199367051Y-132515440D01*
X199365306Y-132515690D01*
X199363579Y-132516065D01*
X199363573Y-132516066D01*
X198858365Y-132625742D01*
X198856638Y-132626117D01*
X198854959Y-132626609D01*
X198854951Y-132626611D01*
X198442799Y-132747375D01*
X198357122Y-132772479D01*
X198355474Y-132773092D01*
X198355472Y-132773093D01*
X197870941Y-132953421D01*
X197870931Y-132953425D01*
X197869295Y-132954034D01*
X197867696Y-132954763D01*
X197867695Y-132954763D01*
X197397227Y-133169133D01*
X197397222Y-133169136D01*
X197395632Y-133169860D01*
X196938537Y-133418862D01*
X196500330Y-133699776D01*
X196083236Y-134011177D01*
X195689371Y-134351483D01*
X195320735Y-134718967D01*
X194979198Y-135111765D01*
X194666494Y-135527883D01*
X194665540Y-135529361D01*
X194665533Y-135529371D01*
X194386018Y-135962407D01*
X194385727Y-135962219D01*
X194385304Y-135963150D01*
X194384158Y-135964343D01*
X194383790Y-135964958D01*
X194382067Y-135970278D01*
X194382066Y-135970280D01*
X194382050Y-135970330D01*
X194380475Y-135974252D01*
X194375306Y-135980715D01*
X194368007Y-136012457D01*
X194365710Y-136020768D01*
X194355669Y-136051764D01*
X194357172Y-136062809D01*
X194357172Y-136062810D01*
X194359096Y-136076945D01*
X194360000Y-136090295D01*
X194360000Y-143309183D01*
X194359049Y-143322875D01*
X194355607Y-143347523D01*
X183360000Y-143347523D01*
X183360000Y-124233960D01*
X183362518Y-124211773D01*
X183362562Y-124211583D01*
X183365143Y-124200358D01*
X183362682Y-124189483D01*
X183362702Y-124178336D01*
X183362863Y-124178336D01*
X183362076Y-124168331D01*
X183374974Y-123971531D01*
X183376664Y-123958691D01*
X183420067Y-123740489D01*
X183423419Y-123727980D01*
X183494933Y-123517309D01*
X183499889Y-123505346D01*
X183598284Y-123305820D01*
X183604753Y-123294614D01*
X183728365Y-123109615D01*
X183736233Y-123099361D01*
X183882931Y-122932085D01*
X183892086Y-122922930D01*
X184059361Y-122776233D01*
X184069615Y-122768365D01*
X184254614Y-122644753D01*
X184265820Y-122638284D01*
X184383046Y-122580475D01*
X184465347Y-122539889D01*
X184477309Y-122534933D01*
X184687984Y-122463418D01*
X184700484Y-122460068D01*
X184918698Y-122416663D01*
X184931523Y-122414975D01*
X185127819Y-122402109D01*
X185137628Y-122402899D01*
X185137628Y-122402625D01*
X185148778Y-122402645D01*
X185159642Y-122405143D01*
X185170514Y-122402683D01*
X185170516Y-122402683D01*
X185171583Y-122402441D01*
X185193432Y-122400000D01*
X216126040Y-122400000D01*
X216148227Y-122402518D01*
G37*
%TD.AperFunction*%
%TD*%
M02*
