%FSLAX45Y45*%
G04 Gerber Fmt 4.5, Leading zero omitted, Abs format (unit mm)*
G04 Created by KiCad (PCBNEW (6.0.0)) date 2022-07-12 22:28:27*
%MOMM*%
%LPD*%
G01*
G04 APERTURE LIST*
%TA.AperFunction,Profile*%
%ADD10C,0.100000*%
%TD*%
%ADD11C,0.200000*%
%ADD12C,0.030000*%
%ADD13C,0.220000*%
%ADD14C,0.320000*%
G04 APERTURE END LIST*
D10*
X19456000Y-14333000D02*
X19456000Y-13607000D01*
X21816000Y-12420000D02*
X21816000Y-15520000D01*
X18516000Y-12220000D02*
X21616000Y-12220000D01*
X21816000Y-12420000D02*
G75*
G03*
X21616000Y-12220000I-200000J0D01*
G01*
X18516000Y-12220000D02*
G75*
G03*
X18316000Y-12420000I0J-200000D01*
G01*
X19456000Y-14333000D02*
G75*
G03*
X20676000Y-14333000I610000J363633D01*
G01*
X20676000Y-13607000D02*
G75*
G03*
X19456000Y-13607000I-610000J-363633D01*
G01*
X18316000Y-12420000D02*
X18316000Y-15520000D01*
X21616000Y-15720000D02*
G75*
G03*
X21816000Y-15520000I0J200000D01*
G01*
X20676000Y-13607000D02*
X20676000Y-14333000D01*
X18516000Y-15720000D02*
X21616000Y-15720000D01*
X18316000Y-15520000D02*
G75*
G03*
X18516000Y-15720000I200000J0D01*
G01*
D11*
D12*
X18374600Y-12431000D02*
X18404600Y-12461000D01*
X18404600Y-12431000D02*
X18374600Y-12461000D01*
X18374600Y-12558000D02*
X18404600Y-12588000D01*
X18404600Y-12558000D02*
X18374600Y-12588000D01*
X18374600Y-12685000D02*
X18404600Y-12715000D01*
X18404600Y-12685000D02*
X18374600Y-12715000D01*
X18374600Y-12812000D02*
X18404600Y-12842000D01*
X18404600Y-12812000D02*
X18374600Y-12842000D01*
X18374600Y-12939000D02*
X18404600Y-12969000D01*
X18404600Y-12939000D02*
X18374600Y-12969000D01*
X18374600Y-13066000D02*
X18404600Y-13096000D01*
X18404600Y-13066000D02*
X18374600Y-13096000D01*
X18374600Y-13193000D02*
X18404600Y-13223000D01*
X18404600Y-13193000D02*
X18374600Y-13223000D01*
X18374600Y-13320000D02*
X18404600Y-13350000D01*
X18404600Y-13320000D02*
X18374600Y-13350000D01*
X18374600Y-13447000D02*
X18404600Y-13477000D01*
X18404600Y-13447000D02*
X18374600Y-13477000D01*
X18374600Y-13574000D02*
X18404600Y-13604000D01*
X18404600Y-13574000D02*
X18374600Y-13604000D01*
X18374600Y-13701000D02*
X18404600Y-13731000D01*
X18404600Y-13701000D02*
X18374600Y-13731000D01*
X18374600Y-13828000D02*
X18404600Y-13858000D01*
X18404600Y-13828000D02*
X18374600Y-13858000D01*
X18374600Y-13955000D02*
X18404600Y-13985000D01*
X18404600Y-13955000D02*
X18374600Y-13985000D01*
X18374600Y-14082000D02*
X18404600Y-14112000D01*
X18404600Y-14082000D02*
X18374600Y-14112000D01*
X18374600Y-14209000D02*
X18404600Y-14239000D01*
X18404600Y-14209000D02*
X18374600Y-14239000D01*
X18374600Y-14336000D02*
X18404600Y-14366000D01*
X18404600Y-14336000D02*
X18374600Y-14366000D01*
X18374600Y-14463000D02*
X18404600Y-14493000D01*
X18404600Y-14463000D02*
X18374600Y-14493000D01*
X18374600Y-14590000D02*
X18404600Y-14620000D01*
X18404600Y-14590000D02*
X18374600Y-14620000D01*
X18374600Y-14717000D02*
X18404600Y-14747000D01*
X18404600Y-14717000D02*
X18374600Y-14747000D01*
X18374600Y-14844000D02*
X18404600Y-14874000D01*
X18404600Y-14844000D02*
X18374600Y-14874000D01*
X18374600Y-14971000D02*
X18404600Y-15001000D01*
X18404600Y-14971000D02*
X18374600Y-15001000D01*
X18374600Y-15098000D02*
X18404600Y-15128000D01*
X18404600Y-15098000D02*
X18374600Y-15128000D01*
X18374600Y-15225000D02*
X18404600Y-15255000D01*
X18404600Y-15225000D02*
X18374600Y-15255000D01*
X18374600Y-15352000D02*
X18404600Y-15382000D01*
X18404600Y-15352000D02*
X18374600Y-15382000D01*
X18374600Y-15479000D02*
X18404600Y-15509000D01*
X18404600Y-15479000D02*
X18374600Y-15509000D01*
X18425400Y-12329400D02*
X18455400Y-12359400D01*
X18455400Y-12329400D02*
X18425400Y-12359400D01*
X18425400Y-15580600D02*
X18455400Y-15610600D01*
X18455400Y-15580600D02*
X18425400Y-15610600D01*
X18474000Y-15140000D02*
X18504000Y-15170000D01*
X18504000Y-15140000D02*
X18474000Y-15170000D01*
X18474000Y-15370000D02*
X18504000Y-15400000D01*
X18504000Y-15370000D02*
X18474000Y-15400000D01*
X18481000Y-12540000D02*
X18511000Y-12570000D01*
X18511000Y-12540000D02*
X18481000Y-12570000D01*
X18481000Y-12770000D02*
X18511000Y-12800000D01*
X18511000Y-12770000D02*
X18481000Y-12800000D01*
X18527000Y-12278600D02*
X18557000Y-12308600D01*
X18557000Y-12278600D02*
X18527000Y-12308600D01*
X18527000Y-13193000D02*
X18557000Y-13223000D01*
X18557000Y-13193000D02*
X18527000Y-13223000D01*
X18527000Y-13447000D02*
X18557000Y-13477000D01*
X18557000Y-13447000D02*
X18527000Y-13477000D01*
X18527000Y-13701000D02*
X18557000Y-13731000D01*
X18557000Y-13701000D02*
X18527000Y-13731000D01*
X18527000Y-13955000D02*
X18557000Y-13985000D01*
X18557000Y-13955000D02*
X18527000Y-13985000D01*
X18527000Y-14209000D02*
X18557000Y-14239000D01*
X18557000Y-14209000D02*
X18527000Y-14239000D01*
X18527000Y-14463000D02*
X18557000Y-14493000D01*
X18557000Y-14463000D02*
X18527000Y-14493000D01*
X18527000Y-14717000D02*
X18557000Y-14747000D01*
X18557000Y-14717000D02*
X18527000Y-14747000D01*
X18527000Y-15631400D02*
X18557000Y-15661400D01*
X18557000Y-15631400D02*
X18527000Y-15661400D01*
X18636000Y-14978000D02*
X18666000Y-15008000D01*
X18666000Y-14978000D02*
X18636000Y-15008000D01*
X18636000Y-15532000D02*
X18666000Y-15562000D01*
X18666000Y-15532000D02*
X18636000Y-15562000D01*
X18643000Y-12378000D02*
X18673000Y-12408000D01*
X18673000Y-12378000D02*
X18643000Y-12408000D01*
X18643000Y-12932000D02*
X18673000Y-12962000D01*
X18673000Y-12932000D02*
X18643000Y-12962000D01*
X18654000Y-12278600D02*
X18684000Y-12308600D01*
X18684000Y-12278600D02*
X18654000Y-12308600D01*
X18654000Y-15631400D02*
X18684000Y-15661400D01*
X18684000Y-15631400D02*
X18654000Y-15661400D01*
X18781000Y-12278600D02*
X18811000Y-12308600D01*
X18811000Y-12278600D02*
X18781000Y-12308600D01*
X18781000Y-13193000D02*
X18811000Y-13223000D01*
X18811000Y-13193000D02*
X18781000Y-13223000D01*
X18781000Y-13447000D02*
X18811000Y-13477000D01*
X18811000Y-13447000D02*
X18781000Y-13477000D01*
X18781000Y-13701000D02*
X18811000Y-13731000D01*
X18811000Y-13701000D02*
X18781000Y-13731000D01*
X18781000Y-13955000D02*
X18811000Y-13985000D01*
X18811000Y-13955000D02*
X18781000Y-13985000D01*
X18781000Y-14209000D02*
X18811000Y-14239000D01*
X18811000Y-14209000D02*
X18781000Y-14239000D01*
X18781000Y-14463000D02*
X18811000Y-14493000D01*
X18811000Y-14463000D02*
X18781000Y-14493000D01*
X18781000Y-14717000D02*
X18811000Y-14747000D01*
X18811000Y-14717000D02*
X18781000Y-14747000D01*
X18781000Y-15631400D02*
X18811000Y-15661400D01*
X18811000Y-15631400D02*
X18781000Y-15661400D01*
X18866000Y-14978000D02*
X18896000Y-15008000D01*
X18896000Y-14978000D02*
X18866000Y-15008000D01*
X18866000Y-15532000D02*
X18896000Y-15562000D01*
X18896000Y-15532000D02*
X18866000Y-15562000D01*
X18873000Y-12378000D02*
X18903000Y-12408000D01*
X18903000Y-12378000D02*
X18873000Y-12408000D01*
X18873000Y-12932000D02*
X18903000Y-12962000D01*
X18903000Y-12932000D02*
X18873000Y-12962000D01*
X18908000Y-12278600D02*
X18938000Y-12308600D01*
X18938000Y-12278600D02*
X18908000Y-12308600D01*
X18908000Y-15631400D02*
X18938000Y-15661400D01*
X18938000Y-15631400D02*
X18908000Y-15661400D01*
X18963000Y-13859500D02*
X18993000Y-13889500D01*
X18993000Y-13859500D02*
X18963000Y-13889500D01*
X18963000Y-14050500D02*
X18993000Y-14080500D01*
X18993000Y-14050500D02*
X18963000Y-14080500D01*
X19028000Y-15140000D02*
X19058000Y-15170000D01*
X19058000Y-15140000D02*
X19028000Y-15170000D01*
X19028000Y-15370000D02*
X19058000Y-15400000D01*
X19058000Y-15370000D02*
X19028000Y-15400000D01*
X19035000Y-12278600D02*
X19065000Y-12308600D01*
X19065000Y-12278600D02*
X19035000Y-12308600D01*
X19035000Y-12540000D02*
X19065000Y-12570000D01*
X19065000Y-12540000D02*
X19035000Y-12570000D01*
X19035000Y-12770000D02*
X19065000Y-12800000D01*
X19065000Y-12770000D02*
X19035000Y-12800000D01*
X19035000Y-13193000D02*
X19065000Y-13223000D01*
X19065000Y-13193000D02*
X19035000Y-13223000D01*
X19035000Y-13447000D02*
X19065000Y-13477000D01*
X19065000Y-13447000D02*
X19035000Y-13477000D01*
X19035000Y-14463000D02*
X19065000Y-14493000D01*
X19065000Y-14463000D02*
X19035000Y-14493000D01*
X19035000Y-14717000D02*
X19065000Y-14747000D01*
X19065000Y-14717000D02*
X19035000Y-14747000D01*
X19035000Y-15631400D02*
X19065000Y-15661400D01*
X19065000Y-15631400D02*
X19035000Y-15661400D01*
X19098000Y-13724500D02*
X19128000Y-13754500D01*
X19128000Y-13724500D02*
X19098000Y-13754500D01*
X19098000Y-14185500D02*
X19128000Y-14215500D01*
X19128000Y-14185500D02*
X19098000Y-14215500D01*
X19162000Y-12278600D02*
X19192000Y-12308600D01*
X19192000Y-12278600D02*
X19162000Y-12308600D01*
X19162000Y-15631400D02*
X19192000Y-15661400D01*
X19192000Y-15631400D02*
X19162000Y-15661400D01*
X19267000Y-13258000D02*
X19297000Y-13288000D01*
X19297000Y-13258000D02*
X19267000Y-13288000D01*
X19267000Y-13380000D02*
X19297000Y-13410000D01*
X19297000Y-13380000D02*
X19267000Y-13410000D01*
X19267000Y-14530000D02*
X19297000Y-14560000D01*
X19297000Y-14530000D02*
X19267000Y-14560000D01*
X19267000Y-14652000D02*
X19297000Y-14682000D01*
X19297000Y-14652000D02*
X19267000Y-14682000D01*
X19289000Y-12278600D02*
X19319000Y-12308600D01*
X19319000Y-12278600D02*
X19289000Y-12308600D01*
X19289000Y-12431000D02*
X19319000Y-12461000D01*
X19319000Y-12431000D02*
X19289000Y-12461000D01*
X19289000Y-12685000D02*
X19319000Y-12715000D01*
X19319000Y-12685000D02*
X19289000Y-12715000D01*
X19289000Y-12939000D02*
X19319000Y-12969000D01*
X19319000Y-12939000D02*
X19289000Y-12969000D01*
X19289000Y-13724500D02*
X19319000Y-13754500D01*
X19319000Y-13724500D02*
X19289000Y-13754500D01*
X19289000Y-14185500D02*
X19319000Y-14215500D01*
X19319000Y-14185500D02*
X19289000Y-14215500D01*
X19289000Y-14971000D02*
X19319000Y-15001000D01*
X19319000Y-14971000D02*
X19289000Y-15001000D01*
X19289000Y-15225000D02*
X19319000Y-15255000D01*
X19319000Y-15225000D02*
X19289000Y-15255000D01*
X19289000Y-15479000D02*
X19319000Y-15509000D01*
X19319000Y-15479000D02*
X19289000Y-15509000D01*
X19289000Y-15631400D02*
X19319000Y-15661400D01*
X19319000Y-15631400D02*
X19289000Y-15661400D01*
X19354000Y-13171000D02*
X19384000Y-13201000D01*
X19384000Y-13171000D02*
X19354000Y-13201000D01*
X19354000Y-13467000D02*
X19384000Y-13497000D01*
X19384000Y-13467000D02*
X19354000Y-13497000D01*
X19354000Y-14443000D02*
X19384000Y-14473000D01*
X19384000Y-14443000D02*
X19354000Y-14473000D01*
X19354000Y-14739000D02*
X19384000Y-14769000D01*
X19384000Y-14739000D02*
X19354000Y-14769000D01*
X19416000Y-12278600D02*
X19446000Y-12308600D01*
X19446000Y-12278600D02*
X19416000Y-12308600D01*
X19416000Y-15631400D02*
X19446000Y-15661400D01*
X19446000Y-15631400D02*
X19416000Y-15661400D01*
X19476000Y-13171000D02*
X19506000Y-13201000D01*
X19506000Y-13171000D02*
X19476000Y-13201000D01*
X19476000Y-13467000D02*
X19506000Y-13497000D01*
X19506000Y-13467000D02*
X19476000Y-13497000D01*
X19476000Y-14443000D02*
X19506000Y-14473000D01*
X19506000Y-14443000D02*
X19476000Y-14473000D01*
X19476000Y-14739000D02*
X19506000Y-14769000D01*
X19506000Y-14739000D02*
X19476000Y-14769000D01*
X19543000Y-12278600D02*
X19573000Y-12308600D01*
X19573000Y-12278600D02*
X19543000Y-12308600D01*
X19543000Y-12431000D02*
X19573000Y-12461000D01*
X19573000Y-12431000D02*
X19543000Y-12461000D01*
X19543000Y-12685000D02*
X19573000Y-12715000D01*
X19573000Y-12685000D02*
X19543000Y-12715000D01*
X19543000Y-12939000D02*
X19573000Y-12969000D01*
X19573000Y-12939000D02*
X19543000Y-12969000D01*
X19543000Y-14971000D02*
X19573000Y-15001000D01*
X19573000Y-14971000D02*
X19543000Y-15001000D01*
X19543000Y-15225000D02*
X19573000Y-15255000D01*
X19573000Y-15225000D02*
X19543000Y-15255000D01*
X19543000Y-15479000D02*
X19573000Y-15509000D01*
X19573000Y-15479000D02*
X19543000Y-15509000D01*
X19543000Y-15631400D02*
X19573000Y-15661400D01*
X19573000Y-15631400D02*
X19543000Y-15661400D01*
X19563000Y-13258000D02*
X19593000Y-13288000D01*
X19593000Y-13258000D02*
X19563000Y-13288000D01*
X19563000Y-13380000D02*
X19593000Y-13410000D01*
X19593000Y-13380000D02*
X19563000Y-13410000D01*
X19563000Y-14530000D02*
X19593000Y-14560000D01*
X19593000Y-14530000D02*
X19563000Y-14560000D01*
X19563000Y-14652000D02*
X19593000Y-14682000D01*
X19593000Y-14652000D02*
X19563000Y-14682000D01*
X19670000Y-12278600D02*
X19700000Y-12308600D01*
X19700000Y-12278600D02*
X19670000Y-12308600D01*
X19670000Y-15631400D02*
X19700000Y-15661400D01*
X19700000Y-15631400D02*
X19670000Y-15661400D01*
X19797000Y-12278600D02*
X19827000Y-12308600D01*
X19827000Y-12278600D02*
X19797000Y-12308600D01*
X19797000Y-12431000D02*
X19827000Y-12461000D01*
X19827000Y-12431000D02*
X19797000Y-12461000D01*
X19797000Y-12685000D02*
X19827000Y-12715000D01*
X19827000Y-12685000D02*
X19797000Y-12715000D01*
X19797000Y-12939000D02*
X19827000Y-12969000D01*
X19827000Y-12939000D02*
X19797000Y-12969000D01*
X19797000Y-13193000D02*
X19827000Y-13223000D01*
X19827000Y-13193000D02*
X19797000Y-13223000D01*
X19797000Y-14717000D02*
X19827000Y-14747000D01*
X19827000Y-14717000D02*
X19797000Y-14747000D01*
X19797000Y-14971000D02*
X19827000Y-15001000D01*
X19827000Y-14971000D02*
X19797000Y-15001000D01*
X19797000Y-15225000D02*
X19827000Y-15255000D01*
X19827000Y-15225000D02*
X19797000Y-15255000D01*
X19797000Y-15479000D02*
X19827000Y-15509000D01*
X19827000Y-15479000D02*
X19797000Y-15509000D01*
X19797000Y-15631400D02*
X19827000Y-15661400D01*
X19827000Y-15631400D02*
X19797000Y-15661400D01*
X19924000Y-12278600D02*
X19954000Y-12308600D01*
X19954000Y-12278600D02*
X19924000Y-12308600D01*
X19924000Y-15631400D02*
X19954000Y-15661400D01*
X19954000Y-15631400D02*
X19924000Y-15661400D01*
X20051000Y-12278600D02*
X20081000Y-12308600D01*
X20081000Y-12278600D02*
X20051000Y-12308600D01*
X20051000Y-12431000D02*
X20081000Y-12461000D01*
X20081000Y-12431000D02*
X20051000Y-12461000D01*
X20051000Y-12685000D02*
X20081000Y-12715000D01*
X20081000Y-12685000D02*
X20051000Y-12715000D01*
X20051000Y-12939000D02*
X20081000Y-12969000D01*
X20081000Y-12939000D02*
X20051000Y-12969000D01*
X20051000Y-13193000D02*
X20081000Y-13223000D01*
X20081000Y-13193000D02*
X20051000Y-13223000D01*
X20051000Y-14717000D02*
X20081000Y-14747000D01*
X20081000Y-14717000D02*
X20051000Y-14747000D01*
X20051000Y-14971000D02*
X20081000Y-15001000D01*
X20081000Y-14971000D02*
X20051000Y-15001000D01*
X20051000Y-15225000D02*
X20081000Y-15255000D01*
X20081000Y-15225000D02*
X20051000Y-15255000D01*
X20051000Y-15479000D02*
X20081000Y-15509000D01*
X20081000Y-15479000D02*
X20051000Y-15509000D01*
X20051000Y-15631400D02*
X20081000Y-15661400D01*
X20081000Y-15631400D02*
X20051000Y-15661400D01*
X20178000Y-12278600D02*
X20208000Y-12308600D01*
X20208000Y-12278600D02*
X20178000Y-12308600D01*
X20178000Y-15631400D02*
X20208000Y-15661400D01*
X20208000Y-15631400D02*
X20178000Y-15661400D01*
X20305000Y-12278600D02*
X20335000Y-12308600D01*
X20335000Y-12278600D02*
X20305000Y-12308600D01*
X20305000Y-12431000D02*
X20335000Y-12461000D01*
X20335000Y-12431000D02*
X20305000Y-12461000D01*
X20305000Y-12685000D02*
X20335000Y-12715000D01*
X20335000Y-12685000D02*
X20305000Y-12715000D01*
X20305000Y-12939000D02*
X20335000Y-12969000D01*
X20335000Y-12939000D02*
X20305000Y-12969000D01*
X20305000Y-13193000D02*
X20335000Y-13223000D01*
X20335000Y-13193000D02*
X20305000Y-13223000D01*
X20305000Y-14717000D02*
X20335000Y-14747000D01*
X20335000Y-14717000D02*
X20305000Y-14747000D01*
X20305000Y-14971000D02*
X20335000Y-15001000D01*
X20335000Y-14971000D02*
X20305000Y-15001000D01*
X20305000Y-15225000D02*
X20335000Y-15255000D01*
X20335000Y-15225000D02*
X20305000Y-15255000D01*
X20305000Y-15479000D02*
X20335000Y-15509000D01*
X20335000Y-15479000D02*
X20305000Y-15509000D01*
X20305000Y-15631400D02*
X20335000Y-15661400D01*
X20335000Y-15631400D02*
X20305000Y-15661400D01*
X20432000Y-12278600D02*
X20462000Y-12308600D01*
X20462000Y-12278600D02*
X20432000Y-12308600D01*
X20432000Y-15631400D02*
X20462000Y-15661400D01*
X20462000Y-15631400D02*
X20432000Y-15661400D01*
X20539000Y-13258000D02*
X20569000Y-13288000D01*
X20569000Y-13258000D02*
X20539000Y-13288000D01*
X20539000Y-13380000D02*
X20569000Y-13410000D01*
X20569000Y-13380000D02*
X20539000Y-13410000D01*
X20539000Y-14530000D02*
X20569000Y-14560000D01*
X20569000Y-14530000D02*
X20539000Y-14560000D01*
X20539000Y-14652000D02*
X20569000Y-14682000D01*
X20569000Y-14652000D02*
X20539000Y-14682000D01*
X20559000Y-12278600D02*
X20589000Y-12308600D01*
X20589000Y-12278600D02*
X20559000Y-12308600D01*
X20559000Y-12431000D02*
X20589000Y-12461000D01*
X20589000Y-12431000D02*
X20559000Y-12461000D01*
X20559000Y-12685000D02*
X20589000Y-12715000D01*
X20589000Y-12685000D02*
X20559000Y-12715000D01*
X20559000Y-12939000D02*
X20589000Y-12969000D01*
X20589000Y-12939000D02*
X20559000Y-12969000D01*
X20559000Y-14971000D02*
X20589000Y-15001000D01*
X20589000Y-14971000D02*
X20559000Y-15001000D01*
X20559000Y-15225000D02*
X20589000Y-15255000D01*
X20589000Y-15225000D02*
X20559000Y-15255000D01*
X20559000Y-15479000D02*
X20589000Y-15509000D01*
X20589000Y-15479000D02*
X20559000Y-15509000D01*
X20559000Y-15631400D02*
X20589000Y-15661400D01*
X20589000Y-15631400D02*
X20559000Y-15661400D01*
X20626000Y-13171000D02*
X20656000Y-13201000D01*
X20656000Y-13171000D02*
X20626000Y-13201000D01*
X20626000Y-13467000D02*
X20656000Y-13497000D01*
X20656000Y-13467000D02*
X20626000Y-13497000D01*
X20626000Y-14443000D02*
X20656000Y-14473000D01*
X20656000Y-14443000D02*
X20626000Y-14473000D01*
X20626000Y-14739000D02*
X20656000Y-14769000D01*
X20656000Y-14739000D02*
X20626000Y-14769000D01*
X20686000Y-12278600D02*
X20716000Y-12308600D01*
X20716000Y-12278600D02*
X20686000Y-12308600D01*
X20686000Y-15631400D02*
X20716000Y-15661400D01*
X20716000Y-15631400D02*
X20686000Y-15661400D01*
X20748000Y-13171000D02*
X20778000Y-13201000D01*
X20778000Y-13171000D02*
X20748000Y-13201000D01*
X20748000Y-13467000D02*
X20778000Y-13497000D01*
X20778000Y-13467000D02*
X20748000Y-13497000D01*
X20748000Y-14443000D02*
X20778000Y-14473000D01*
X20778000Y-14443000D02*
X20748000Y-14473000D01*
X20748000Y-14739000D02*
X20778000Y-14769000D01*
X20778000Y-14739000D02*
X20748000Y-14769000D01*
X20805500Y-13724500D02*
X20835500Y-13754500D01*
X20835500Y-13724500D02*
X20805500Y-13754500D01*
X20805500Y-14185500D02*
X20835500Y-14215500D01*
X20835500Y-14185500D02*
X20805500Y-14215500D01*
X20813000Y-12278600D02*
X20843000Y-12308600D01*
X20843000Y-12278600D02*
X20813000Y-12308600D01*
X20813000Y-12431000D02*
X20843000Y-12461000D01*
X20843000Y-12431000D02*
X20813000Y-12461000D01*
X20813000Y-12685000D02*
X20843000Y-12715000D01*
X20843000Y-12685000D02*
X20813000Y-12715000D01*
X20813000Y-12939000D02*
X20843000Y-12969000D01*
X20843000Y-12939000D02*
X20813000Y-12969000D01*
X20813000Y-14971000D02*
X20843000Y-15001000D01*
X20843000Y-14971000D02*
X20813000Y-15001000D01*
X20813000Y-15225000D02*
X20843000Y-15255000D01*
X20843000Y-15225000D02*
X20813000Y-15255000D01*
X20813000Y-15479000D02*
X20843000Y-15509000D01*
X20843000Y-15479000D02*
X20813000Y-15509000D01*
X20813000Y-15631400D02*
X20843000Y-15661400D01*
X20843000Y-15631400D02*
X20813000Y-15661400D01*
X20835000Y-13258000D02*
X20865000Y-13288000D01*
X20865000Y-13258000D02*
X20835000Y-13288000D01*
X20835000Y-13380000D02*
X20865000Y-13410000D01*
X20865000Y-13380000D02*
X20835000Y-13410000D01*
X20835000Y-14530000D02*
X20865000Y-14560000D01*
X20865000Y-14530000D02*
X20835000Y-14560000D01*
X20835000Y-14652000D02*
X20865000Y-14682000D01*
X20865000Y-14652000D02*
X20835000Y-14682000D01*
X20940000Y-12278600D02*
X20970000Y-12308600D01*
X20970000Y-12278600D02*
X20940000Y-12308600D01*
X20940000Y-15631400D02*
X20970000Y-15661400D01*
X20970000Y-15631400D02*
X20940000Y-15661400D01*
X20996500Y-13724500D02*
X21026500Y-13754500D01*
X21026500Y-13724500D02*
X20996500Y-13754500D01*
X20996500Y-14185500D02*
X21026500Y-14215500D01*
X21026500Y-14185500D02*
X20996500Y-14215500D01*
X21067000Y-12278600D02*
X21097000Y-12308600D01*
X21097000Y-12278600D02*
X21067000Y-12308600D01*
X21067000Y-13193000D02*
X21097000Y-13223000D01*
X21097000Y-13193000D02*
X21067000Y-13223000D01*
X21067000Y-13447000D02*
X21097000Y-13477000D01*
X21097000Y-13447000D02*
X21067000Y-13477000D01*
X21067000Y-14463000D02*
X21097000Y-14493000D01*
X21097000Y-14463000D02*
X21067000Y-14493000D01*
X21067000Y-14717000D02*
X21097000Y-14747000D01*
X21097000Y-14717000D02*
X21067000Y-14747000D01*
X21067000Y-15631400D02*
X21097000Y-15661400D01*
X21097000Y-15631400D02*
X21067000Y-15661400D01*
X21074000Y-12540000D02*
X21104000Y-12570000D01*
X21104000Y-12540000D02*
X21074000Y-12570000D01*
X21074000Y-12770000D02*
X21104000Y-12800000D01*
X21104000Y-12770000D02*
X21074000Y-12800000D01*
X21074000Y-15140000D02*
X21104000Y-15170000D01*
X21104000Y-15140000D02*
X21074000Y-15170000D01*
X21074000Y-15370000D02*
X21104000Y-15400000D01*
X21104000Y-15370000D02*
X21074000Y-15400000D01*
X21131500Y-13859500D02*
X21161500Y-13889500D01*
X21161500Y-13859500D02*
X21131500Y-13889500D01*
X21131500Y-14050500D02*
X21161500Y-14080500D01*
X21161500Y-14050500D02*
X21131500Y-14080500D01*
X21194000Y-12278600D02*
X21224000Y-12308600D01*
X21224000Y-12278600D02*
X21194000Y-12308600D01*
X21194000Y-15631400D02*
X21224000Y-15661400D01*
X21224000Y-15631400D02*
X21194000Y-15661400D01*
X21236000Y-12378000D02*
X21266000Y-12408000D01*
X21266000Y-12378000D02*
X21236000Y-12408000D01*
X21236000Y-12932000D02*
X21266000Y-12962000D01*
X21266000Y-12932000D02*
X21236000Y-12962000D01*
X21236000Y-14978000D02*
X21266000Y-15008000D01*
X21266000Y-14978000D02*
X21236000Y-15008000D01*
X21236000Y-15532000D02*
X21266000Y-15562000D01*
X21266000Y-15532000D02*
X21236000Y-15562000D01*
X21321000Y-12278600D02*
X21351000Y-12308600D01*
X21351000Y-12278600D02*
X21321000Y-12308600D01*
X21321000Y-13193000D02*
X21351000Y-13223000D01*
X21351000Y-13193000D02*
X21321000Y-13223000D01*
X21321000Y-13447000D02*
X21351000Y-13477000D01*
X21351000Y-13447000D02*
X21321000Y-13477000D01*
X21321000Y-13701000D02*
X21351000Y-13731000D01*
X21351000Y-13701000D02*
X21321000Y-13731000D01*
X21321000Y-13955000D02*
X21351000Y-13985000D01*
X21351000Y-13955000D02*
X21321000Y-13985000D01*
X21321000Y-14209000D02*
X21351000Y-14239000D01*
X21351000Y-14209000D02*
X21321000Y-14239000D01*
X21321000Y-14463000D02*
X21351000Y-14493000D01*
X21351000Y-14463000D02*
X21321000Y-14493000D01*
X21321000Y-14717000D02*
X21351000Y-14747000D01*
X21351000Y-14717000D02*
X21321000Y-14747000D01*
X21321000Y-15631400D02*
X21351000Y-15661400D01*
X21351000Y-15631400D02*
X21321000Y-15661400D01*
X21448000Y-12278600D02*
X21478000Y-12308600D01*
X21478000Y-12278600D02*
X21448000Y-12308600D01*
X21448000Y-15631400D02*
X21478000Y-15661400D01*
X21478000Y-15631400D02*
X21448000Y-15661400D01*
X21466000Y-12378000D02*
X21496000Y-12408000D01*
X21496000Y-12378000D02*
X21466000Y-12408000D01*
X21466000Y-12932000D02*
X21496000Y-12962000D01*
X21496000Y-12932000D02*
X21466000Y-12962000D01*
X21466000Y-14978000D02*
X21496000Y-15008000D01*
X21496000Y-14978000D02*
X21466000Y-15008000D01*
X21466000Y-15532000D02*
X21496000Y-15562000D01*
X21496000Y-15532000D02*
X21466000Y-15562000D01*
X21575000Y-12278600D02*
X21605000Y-12308600D01*
X21605000Y-12278600D02*
X21575000Y-12308600D01*
X21575000Y-13193000D02*
X21605000Y-13223000D01*
X21605000Y-13193000D02*
X21575000Y-13223000D01*
X21575000Y-13447000D02*
X21605000Y-13477000D01*
X21605000Y-13447000D02*
X21575000Y-13477000D01*
X21575000Y-13701000D02*
X21605000Y-13731000D01*
X21605000Y-13701000D02*
X21575000Y-13731000D01*
X21575000Y-13955000D02*
X21605000Y-13985000D01*
X21605000Y-13955000D02*
X21575000Y-13985000D01*
X21575000Y-14209000D02*
X21605000Y-14239000D01*
X21605000Y-14209000D02*
X21575000Y-14239000D01*
X21575000Y-14463000D02*
X21605000Y-14493000D01*
X21605000Y-14463000D02*
X21575000Y-14493000D01*
X21575000Y-14717000D02*
X21605000Y-14747000D01*
X21605000Y-14717000D02*
X21575000Y-14747000D01*
X21575000Y-15631400D02*
X21605000Y-15661400D01*
X21605000Y-15631400D02*
X21575000Y-15661400D01*
X21628000Y-12540000D02*
X21658000Y-12570000D01*
X21658000Y-12540000D02*
X21628000Y-12570000D01*
X21628000Y-12770000D02*
X21658000Y-12800000D01*
X21658000Y-12770000D02*
X21628000Y-12800000D01*
X21628000Y-15140000D02*
X21658000Y-15170000D01*
X21658000Y-15140000D02*
X21628000Y-15170000D01*
X21628000Y-15370000D02*
X21658000Y-15400000D01*
X21658000Y-15370000D02*
X21628000Y-15400000D01*
X21676600Y-12329400D02*
X21706600Y-12359400D01*
X21706600Y-12329400D02*
X21676600Y-12359400D01*
X21676600Y-15580600D02*
X21706600Y-15610600D01*
X21706600Y-15580600D02*
X21676600Y-15610600D01*
X21727400Y-12431000D02*
X21757400Y-12461000D01*
X21757400Y-12431000D02*
X21727400Y-12461000D01*
X21727400Y-12583400D02*
X21757400Y-12613400D01*
X21757400Y-12583400D02*
X21727400Y-12613400D01*
X21727400Y-12685000D02*
X21757400Y-12715000D01*
X21757400Y-12685000D02*
X21727400Y-12715000D01*
X21727400Y-12812000D02*
X21757400Y-12842000D01*
X21757400Y-12812000D02*
X21727400Y-12842000D01*
X21727400Y-12939000D02*
X21757400Y-12969000D01*
X21757400Y-12939000D02*
X21727400Y-12969000D01*
X21727400Y-13066000D02*
X21757400Y-13096000D01*
X21757400Y-13066000D02*
X21727400Y-13096000D01*
X21727400Y-13193000D02*
X21757400Y-13223000D01*
X21757400Y-13193000D02*
X21727400Y-13223000D01*
X21727400Y-13320000D02*
X21757400Y-13350000D01*
X21757400Y-13320000D02*
X21727400Y-13350000D01*
X21727400Y-13447000D02*
X21757400Y-13477000D01*
X21757400Y-13447000D02*
X21727400Y-13477000D01*
X21727400Y-13574000D02*
X21757400Y-13604000D01*
X21757400Y-13574000D02*
X21727400Y-13604000D01*
X21727400Y-13701000D02*
X21757400Y-13731000D01*
X21757400Y-13701000D02*
X21727400Y-13731000D01*
X21727400Y-13828000D02*
X21757400Y-13858000D01*
X21757400Y-13828000D02*
X21727400Y-13858000D01*
X21727400Y-13955000D02*
X21757400Y-13985000D01*
X21757400Y-13955000D02*
X21727400Y-13985000D01*
X21727400Y-14082000D02*
X21757400Y-14112000D01*
X21757400Y-14082000D02*
X21727400Y-14112000D01*
X21727400Y-14209000D02*
X21757400Y-14239000D01*
X21757400Y-14209000D02*
X21727400Y-14239000D01*
X21727400Y-14336000D02*
X21757400Y-14366000D01*
X21757400Y-14336000D02*
X21727400Y-14366000D01*
X21727400Y-14463000D02*
X21757400Y-14493000D01*
X21757400Y-14463000D02*
X21727400Y-14493000D01*
X21727400Y-14590000D02*
X21757400Y-14620000D01*
X21757400Y-14590000D02*
X21727400Y-14620000D01*
X21727400Y-14717000D02*
X21757400Y-14747000D01*
X21757400Y-14717000D02*
X21727400Y-14747000D01*
X21727400Y-14844000D02*
X21757400Y-14874000D01*
X21757400Y-14844000D02*
X21727400Y-14874000D01*
X21727400Y-14971000D02*
X21757400Y-15001000D01*
X21757400Y-14971000D02*
X21727400Y-15001000D01*
X21727400Y-15098000D02*
X21757400Y-15128000D01*
X21757400Y-15098000D02*
X21727400Y-15128000D01*
X21727400Y-15225000D02*
X21757400Y-15255000D01*
X21757400Y-15225000D02*
X21727400Y-15255000D01*
X21727400Y-15352000D02*
X21757400Y-15382000D01*
X21757400Y-15352000D02*
X21727400Y-15382000D01*
X21727400Y-15479000D02*
X21757400Y-15509000D01*
X21757400Y-15479000D02*
X21727400Y-15509000D01*
D13*
X19540000Y-13334000D02*
G75*
G03*
X19540000Y-13334000I-110000J0D01*
G01*
X19540000Y-14606000D02*
G75*
G03*
X19540000Y-14606000I-110000J0D01*
G01*
X20812000Y-13334000D02*
G75*
G03*
X20812000Y-13334000I-110000J0D01*
G01*
X20812000Y-14606000D02*
G75*
G03*
X20812000Y-14606000I-110000J0D01*
G01*
D14*
X18766000Y-12510000D02*
X18766000Y-12830000D01*
X18606000Y-12670000D02*
X18926000Y-12670000D01*
X18766000Y-15110000D02*
X18766000Y-15430000D01*
X18606000Y-15270000D02*
X18926000Y-15270000D01*
X19216000Y-13810000D02*
X19216000Y-14130000D01*
X19056000Y-13970000D02*
X19376000Y-13970000D01*
X20916000Y-13810000D02*
X20916000Y-14130000D01*
X20756000Y-13970000D02*
X21076000Y-13970000D01*
X21366000Y-12510000D02*
X21366000Y-12830000D01*
X21206000Y-12670000D02*
X21526000Y-12670000D01*
X21366000Y-15110000D02*
X21366000Y-15430000D01*
X21206000Y-15270000D02*
X21526000Y-15270000D01*
D11*
X18568619Y-16035476D02*
X18568619Y-15835476D01*
X18616238Y-15835476D01*
X18644810Y-15845000D01*
X18663857Y-15864048D01*
X18673381Y-15883095D01*
X18682905Y-15921190D01*
X18682905Y-15949762D01*
X18673381Y-15987857D01*
X18663857Y-16006905D01*
X18644810Y-16025952D01*
X18616238Y-16035476D01*
X18568619Y-16035476D01*
X18768619Y-16035476D02*
X18768619Y-15902143D01*
X18768619Y-15940238D02*
X18778143Y-15921190D01*
X18787667Y-15911667D01*
X18806714Y-15902143D01*
X18825762Y-15902143D01*
X18892429Y-16035476D02*
X18892429Y-15902143D01*
X18892429Y-15835476D02*
X18882905Y-15845000D01*
X18892429Y-15854524D01*
X18901952Y-15845000D01*
X18892429Y-15835476D01*
X18892429Y-15854524D01*
X19016238Y-16035476D02*
X18997190Y-16025952D01*
X18987667Y-16006905D01*
X18987667Y-15835476D01*
X19121000Y-16035476D02*
X19101952Y-16025952D01*
X19092429Y-16006905D01*
X19092429Y-15835476D01*
X19349571Y-16035476D02*
X19349571Y-15835476D01*
X19416238Y-15978333D01*
X19482905Y-15835476D01*
X19482905Y-16035476D01*
X19663857Y-16035476D02*
X19663857Y-15930714D01*
X19654333Y-15911667D01*
X19635286Y-15902143D01*
X19597190Y-15902143D01*
X19578143Y-15911667D01*
X19663857Y-16025952D02*
X19644810Y-16035476D01*
X19597190Y-16035476D01*
X19578143Y-16025952D01*
X19568619Y-16006905D01*
X19568619Y-15987857D01*
X19578143Y-15968809D01*
X19597190Y-15959286D01*
X19644810Y-15959286D01*
X19663857Y-15949762D01*
X19759095Y-15902143D02*
X19759095Y-16102143D01*
X19759095Y-15911667D02*
X19778143Y-15902143D01*
X19816238Y-15902143D01*
X19835286Y-15911667D01*
X19844810Y-15921190D01*
X19854333Y-15940238D01*
X19854333Y-15997381D01*
X19844810Y-16016428D01*
X19835286Y-16025952D01*
X19816238Y-16035476D01*
X19778143Y-16035476D01*
X19759095Y-16025952D01*
X19940048Y-16016428D02*
X19949571Y-16025952D01*
X19940048Y-16035476D01*
X19930524Y-16025952D01*
X19940048Y-16016428D01*
X19940048Y-16035476D01*
X19940048Y-15911667D02*
X19949571Y-15921190D01*
X19940048Y-15930714D01*
X19930524Y-15921190D01*
X19940048Y-15911667D01*
X19940048Y-15930714D01*
D12*
X18281000Y-16350000D02*
X18311000Y-16380000D01*
X18311000Y-16350000D02*
X18281000Y-16380000D01*
D11*
X18606714Y-16255476D02*
X18625762Y-16255476D01*
X18644810Y-16265000D01*
X18654333Y-16274524D01*
X18663857Y-16293571D01*
X18673381Y-16331667D01*
X18673381Y-16379286D01*
X18663857Y-16417381D01*
X18654333Y-16436428D01*
X18644810Y-16445952D01*
X18625762Y-16455476D01*
X18606714Y-16455476D01*
X18587667Y-16445952D01*
X18578143Y-16436428D01*
X18568619Y-16417381D01*
X18559095Y-16379286D01*
X18559095Y-16331667D01*
X18568619Y-16293571D01*
X18578143Y-16274524D01*
X18587667Y-16265000D01*
X18606714Y-16255476D01*
X18759095Y-16436428D02*
X18768619Y-16445952D01*
X18759095Y-16455476D01*
X18749571Y-16445952D01*
X18759095Y-16436428D01*
X18759095Y-16455476D01*
X18835286Y-16255476D02*
X18959095Y-16255476D01*
X18892429Y-16331667D01*
X18921000Y-16331667D01*
X18940048Y-16341190D01*
X18949571Y-16350714D01*
X18959095Y-16369762D01*
X18959095Y-16417381D01*
X18949571Y-16436428D01*
X18940048Y-16445952D01*
X18921000Y-16455476D01*
X18863857Y-16455476D01*
X18844810Y-16445952D01*
X18835286Y-16436428D01*
X19082905Y-16255476D02*
X19101952Y-16255476D01*
X19121000Y-16265000D01*
X19130524Y-16274524D01*
X19140048Y-16293571D01*
X19149571Y-16331667D01*
X19149571Y-16379286D01*
X19140048Y-16417381D01*
X19130524Y-16436428D01*
X19121000Y-16445952D01*
X19101952Y-16455476D01*
X19082905Y-16455476D01*
X19063857Y-16445952D01*
X19054333Y-16436428D01*
X19044810Y-16417381D01*
X19035286Y-16379286D01*
X19035286Y-16331667D01*
X19044810Y-16293571D01*
X19054333Y-16274524D01*
X19063857Y-16265000D01*
X19082905Y-16255476D01*
X19273381Y-16255476D02*
X19292429Y-16255476D01*
X19311476Y-16265000D01*
X19321000Y-16274524D01*
X19330524Y-16293571D01*
X19340048Y-16331667D01*
X19340048Y-16379286D01*
X19330524Y-16417381D01*
X19321000Y-16436428D01*
X19311476Y-16445952D01*
X19292429Y-16455476D01*
X19273381Y-16455476D01*
X19254333Y-16445952D01*
X19244810Y-16436428D01*
X19235286Y-16417381D01*
X19225762Y-16379286D01*
X19225762Y-16331667D01*
X19235286Y-16293571D01*
X19244810Y-16274524D01*
X19254333Y-16265000D01*
X19273381Y-16255476D01*
X19425762Y-16455476D02*
X19425762Y-16322143D01*
X19425762Y-16341190D02*
X19435286Y-16331667D01*
X19454333Y-16322143D01*
X19482905Y-16322143D01*
X19501952Y-16331667D01*
X19511476Y-16350714D01*
X19511476Y-16455476D01*
X19511476Y-16350714D02*
X19521000Y-16331667D01*
X19540048Y-16322143D01*
X19568619Y-16322143D01*
X19587667Y-16331667D01*
X19597190Y-16350714D01*
X19597190Y-16455476D01*
X19692429Y-16455476D02*
X19692429Y-16322143D01*
X19692429Y-16341190D02*
X19701952Y-16331667D01*
X19721000Y-16322143D01*
X19749571Y-16322143D01*
X19768619Y-16331667D01*
X19778143Y-16350714D01*
X19778143Y-16455476D01*
X19778143Y-16350714D02*
X19787667Y-16331667D01*
X19806714Y-16322143D01*
X19835286Y-16322143D01*
X19854333Y-16331667D01*
X19863857Y-16350714D01*
X19863857Y-16455476D01*
X20254333Y-16245952D02*
X20082905Y-16503095D01*
X20511476Y-16255476D02*
X20530524Y-16255476D01*
X20549571Y-16265000D01*
X20559095Y-16274524D01*
X20568619Y-16293571D01*
X20578143Y-16331667D01*
X20578143Y-16379286D01*
X20568619Y-16417381D01*
X20559095Y-16436428D01*
X20549571Y-16445952D01*
X20530524Y-16455476D01*
X20511476Y-16455476D01*
X20492429Y-16445952D01*
X20482905Y-16436428D01*
X20473381Y-16417381D01*
X20463857Y-16379286D01*
X20463857Y-16331667D01*
X20473381Y-16293571D01*
X20482905Y-16274524D01*
X20492429Y-16265000D01*
X20511476Y-16255476D01*
X20663857Y-16436428D02*
X20673381Y-16445952D01*
X20663857Y-16455476D01*
X20654333Y-16445952D01*
X20663857Y-16436428D01*
X20663857Y-16455476D01*
X20797190Y-16255476D02*
X20816238Y-16255476D01*
X20835286Y-16265000D01*
X20844810Y-16274524D01*
X20854333Y-16293571D01*
X20863857Y-16331667D01*
X20863857Y-16379286D01*
X20854333Y-16417381D01*
X20844810Y-16436428D01*
X20835286Y-16445952D01*
X20816238Y-16455476D01*
X20797190Y-16455476D01*
X20778143Y-16445952D01*
X20768619Y-16436428D01*
X20759095Y-16417381D01*
X20749571Y-16379286D01*
X20749571Y-16331667D01*
X20759095Y-16293571D01*
X20768619Y-16274524D01*
X20778143Y-16265000D01*
X20797190Y-16255476D01*
X21054333Y-16455476D02*
X20940048Y-16455476D01*
X20997190Y-16455476D02*
X20997190Y-16255476D01*
X20978143Y-16284048D01*
X20959095Y-16303095D01*
X20940048Y-16312619D01*
X21244810Y-16455476D02*
X21130524Y-16455476D01*
X21187667Y-16455476D02*
X21187667Y-16255476D01*
X21168619Y-16284048D01*
X21149571Y-16303095D01*
X21130524Y-16312619D01*
X21359095Y-16341190D02*
X21340048Y-16331667D01*
X21330524Y-16322143D01*
X21321000Y-16303095D01*
X21321000Y-16293571D01*
X21330524Y-16274524D01*
X21340048Y-16265000D01*
X21359095Y-16255476D01*
X21397190Y-16255476D01*
X21416238Y-16265000D01*
X21425762Y-16274524D01*
X21435286Y-16293571D01*
X21435286Y-16303095D01*
X21425762Y-16322143D01*
X21416238Y-16331667D01*
X21397190Y-16341190D01*
X21359095Y-16341190D01*
X21340048Y-16350714D01*
X21330524Y-16360238D01*
X21321000Y-16379286D01*
X21321000Y-16417381D01*
X21330524Y-16436428D01*
X21340048Y-16445952D01*
X21359095Y-16455476D01*
X21397190Y-16455476D01*
X21416238Y-16445952D01*
X21425762Y-16436428D01*
X21435286Y-16417381D01*
X21435286Y-16379286D01*
X21425762Y-16360238D01*
X21416238Y-16350714D01*
X21397190Y-16341190D01*
X21511476Y-16255476D02*
X21511476Y-16293571D01*
X21587667Y-16255476D02*
X21587667Y-16293571D01*
X21882905Y-16531667D02*
X21873381Y-16522143D01*
X21854333Y-16493571D01*
X21844810Y-16474524D01*
X21835286Y-16445952D01*
X21825762Y-16398333D01*
X21825762Y-16360238D01*
X21835286Y-16312619D01*
X21844810Y-16284048D01*
X21854333Y-16265000D01*
X21873381Y-16236428D01*
X21882905Y-16226905D01*
X21949571Y-16274524D02*
X21959095Y-16265000D01*
X21978143Y-16255476D01*
X22025762Y-16255476D01*
X22044810Y-16265000D01*
X22054333Y-16274524D01*
X22063857Y-16293571D01*
X22063857Y-16312619D01*
X22054333Y-16341190D01*
X21940048Y-16455476D01*
X22063857Y-16455476D01*
X22235286Y-16255476D02*
X22197190Y-16255476D01*
X22178143Y-16265000D01*
X22168619Y-16274524D01*
X22149571Y-16303095D01*
X22140048Y-16341190D01*
X22140048Y-16417381D01*
X22149571Y-16436428D01*
X22159095Y-16445952D01*
X22178143Y-16455476D01*
X22216238Y-16455476D01*
X22235286Y-16445952D01*
X22244810Y-16436428D01*
X22254333Y-16417381D01*
X22254333Y-16369762D01*
X22244810Y-16350714D01*
X22235286Y-16341190D01*
X22216238Y-16331667D01*
X22178143Y-16331667D01*
X22159095Y-16341190D01*
X22149571Y-16350714D01*
X22140048Y-16369762D01*
X22425762Y-16322143D02*
X22425762Y-16455476D01*
X22378143Y-16245952D02*
X22330524Y-16388809D01*
X22454333Y-16388809D01*
X22682905Y-16455476D02*
X22682905Y-16255476D01*
X22768619Y-16455476D02*
X22768619Y-16350714D01*
X22759095Y-16331667D01*
X22740048Y-16322143D01*
X22711476Y-16322143D01*
X22692428Y-16331667D01*
X22682905Y-16341190D01*
X22892428Y-16455476D02*
X22873381Y-16445952D01*
X22863857Y-16436428D01*
X22854333Y-16417381D01*
X22854333Y-16360238D01*
X22863857Y-16341190D01*
X22873381Y-16331667D01*
X22892428Y-16322143D01*
X22921000Y-16322143D01*
X22940048Y-16331667D01*
X22949571Y-16341190D01*
X22959095Y-16360238D01*
X22959095Y-16417381D01*
X22949571Y-16436428D01*
X22940048Y-16445952D01*
X22921000Y-16455476D01*
X22892428Y-16455476D01*
X23073381Y-16455476D02*
X23054333Y-16445952D01*
X23044809Y-16426905D01*
X23044809Y-16255476D01*
X23225762Y-16445952D02*
X23206714Y-16455476D01*
X23168619Y-16455476D01*
X23149571Y-16445952D01*
X23140048Y-16426905D01*
X23140048Y-16350714D01*
X23149571Y-16331667D01*
X23168619Y-16322143D01*
X23206714Y-16322143D01*
X23225762Y-16331667D01*
X23235286Y-16350714D01*
X23235286Y-16369762D01*
X23140048Y-16388809D01*
X23311476Y-16445952D02*
X23330524Y-16455476D01*
X23368619Y-16455476D01*
X23387667Y-16445952D01*
X23397190Y-16426905D01*
X23397190Y-16417381D01*
X23387667Y-16398333D01*
X23368619Y-16388809D01*
X23340048Y-16388809D01*
X23321000Y-16379286D01*
X23311476Y-16360238D01*
X23311476Y-16350714D01*
X23321000Y-16331667D01*
X23340048Y-16322143D01*
X23368619Y-16322143D01*
X23387667Y-16331667D01*
X23463857Y-16531667D02*
X23473381Y-16522143D01*
X23492428Y-16493571D01*
X23501952Y-16474524D01*
X23511476Y-16445952D01*
X23521000Y-16398333D01*
X23521000Y-16360238D01*
X23511476Y-16312619D01*
X23501952Y-16284048D01*
X23492428Y-16265000D01*
X23473381Y-16236428D01*
X23463857Y-16226905D01*
X18311000Y-16629000D02*
G75*
G03*
X18311000Y-16629000I-100000J0D01*
G01*
X18559095Y-16538524D02*
X18568619Y-16529000D01*
X18587667Y-16519476D01*
X18635286Y-16519476D01*
X18654333Y-16529000D01*
X18663857Y-16538524D01*
X18673381Y-16557571D01*
X18673381Y-16576619D01*
X18663857Y-16605190D01*
X18549571Y-16719476D01*
X18673381Y-16719476D01*
X18759095Y-16700428D02*
X18768619Y-16709952D01*
X18759095Y-16719476D01*
X18749571Y-16709952D01*
X18759095Y-16700428D01*
X18759095Y-16719476D01*
X18844810Y-16538524D02*
X18854333Y-16529000D01*
X18873381Y-16519476D01*
X18921000Y-16519476D01*
X18940048Y-16529000D01*
X18949571Y-16538524D01*
X18959095Y-16557571D01*
X18959095Y-16576619D01*
X18949571Y-16605190D01*
X18835286Y-16719476D01*
X18959095Y-16719476D01*
X19082905Y-16519476D02*
X19101952Y-16519476D01*
X19121000Y-16529000D01*
X19130524Y-16538524D01*
X19140048Y-16557571D01*
X19149571Y-16595667D01*
X19149571Y-16643286D01*
X19140048Y-16681381D01*
X19130524Y-16700428D01*
X19121000Y-16709952D01*
X19101952Y-16719476D01*
X19082905Y-16719476D01*
X19063857Y-16709952D01*
X19054333Y-16700428D01*
X19044810Y-16681381D01*
X19035286Y-16643286D01*
X19035286Y-16595667D01*
X19044810Y-16557571D01*
X19054333Y-16538524D01*
X19063857Y-16529000D01*
X19082905Y-16519476D01*
X19273381Y-16519476D02*
X19292429Y-16519476D01*
X19311476Y-16529000D01*
X19321000Y-16538524D01*
X19330524Y-16557571D01*
X19340048Y-16595667D01*
X19340048Y-16643286D01*
X19330524Y-16681381D01*
X19321000Y-16700428D01*
X19311476Y-16709952D01*
X19292429Y-16719476D01*
X19273381Y-16719476D01*
X19254333Y-16709952D01*
X19244810Y-16700428D01*
X19235286Y-16681381D01*
X19225762Y-16643286D01*
X19225762Y-16595667D01*
X19235286Y-16557571D01*
X19244810Y-16538524D01*
X19254333Y-16529000D01*
X19273381Y-16519476D01*
X19425762Y-16719476D02*
X19425762Y-16586143D01*
X19425762Y-16605190D02*
X19435286Y-16595667D01*
X19454333Y-16586143D01*
X19482905Y-16586143D01*
X19501952Y-16595667D01*
X19511476Y-16614714D01*
X19511476Y-16719476D01*
X19511476Y-16614714D02*
X19521000Y-16595667D01*
X19540048Y-16586143D01*
X19568619Y-16586143D01*
X19587667Y-16595667D01*
X19597190Y-16614714D01*
X19597190Y-16719476D01*
X19692429Y-16719476D02*
X19692429Y-16586143D01*
X19692429Y-16605190D02*
X19701952Y-16595667D01*
X19721000Y-16586143D01*
X19749571Y-16586143D01*
X19768619Y-16595667D01*
X19778143Y-16614714D01*
X19778143Y-16719476D01*
X19778143Y-16614714D02*
X19787667Y-16595667D01*
X19806714Y-16586143D01*
X19835286Y-16586143D01*
X19854333Y-16595667D01*
X19863857Y-16614714D01*
X19863857Y-16719476D01*
X20254333Y-16509952D02*
X20082905Y-16767095D01*
X20511476Y-16519476D02*
X20530524Y-16519476D01*
X20549571Y-16529000D01*
X20559095Y-16538524D01*
X20568619Y-16557571D01*
X20578143Y-16595667D01*
X20578143Y-16643286D01*
X20568619Y-16681381D01*
X20559095Y-16700428D01*
X20549571Y-16709952D01*
X20530524Y-16719476D01*
X20511476Y-16719476D01*
X20492429Y-16709952D01*
X20482905Y-16700428D01*
X20473381Y-16681381D01*
X20463857Y-16643286D01*
X20463857Y-16595667D01*
X20473381Y-16557571D01*
X20482905Y-16538524D01*
X20492429Y-16529000D01*
X20511476Y-16519476D01*
X20663857Y-16700428D02*
X20673381Y-16709952D01*
X20663857Y-16719476D01*
X20654333Y-16709952D01*
X20663857Y-16700428D01*
X20663857Y-16719476D01*
X20797190Y-16519476D02*
X20816238Y-16519476D01*
X20835286Y-16529000D01*
X20844810Y-16538524D01*
X20854333Y-16557571D01*
X20863857Y-16595667D01*
X20863857Y-16643286D01*
X20854333Y-16681381D01*
X20844810Y-16700428D01*
X20835286Y-16709952D01*
X20816238Y-16719476D01*
X20797190Y-16719476D01*
X20778143Y-16709952D01*
X20768619Y-16700428D01*
X20759095Y-16681381D01*
X20749571Y-16643286D01*
X20749571Y-16595667D01*
X20759095Y-16557571D01*
X20768619Y-16538524D01*
X20778143Y-16529000D01*
X20797190Y-16519476D01*
X20978143Y-16605190D02*
X20959095Y-16595667D01*
X20949571Y-16586143D01*
X20940048Y-16567095D01*
X20940048Y-16557571D01*
X20949571Y-16538524D01*
X20959095Y-16529000D01*
X20978143Y-16519476D01*
X21016238Y-16519476D01*
X21035286Y-16529000D01*
X21044810Y-16538524D01*
X21054333Y-16557571D01*
X21054333Y-16567095D01*
X21044810Y-16586143D01*
X21035286Y-16595667D01*
X21016238Y-16605190D01*
X20978143Y-16605190D01*
X20959095Y-16614714D01*
X20949571Y-16624238D01*
X20940048Y-16643286D01*
X20940048Y-16681381D01*
X20949571Y-16700428D01*
X20959095Y-16709952D01*
X20978143Y-16719476D01*
X21016238Y-16719476D01*
X21035286Y-16709952D01*
X21044810Y-16700428D01*
X21054333Y-16681381D01*
X21054333Y-16643286D01*
X21044810Y-16624238D01*
X21035286Y-16614714D01*
X21016238Y-16605190D01*
X21225762Y-16519476D02*
X21187667Y-16519476D01*
X21168619Y-16529000D01*
X21159095Y-16538524D01*
X21140048Y-16567095D01*
X21130524Y-16605190D01*
X21130524Y-16681381D01*
X21140048Y-16700428D01*
X21149571Y-16709952D01*
X21168619Y-16719476D01*
X21206714Y-16719476D01*
X21225762Y-16709952D01*
X21235286Y-16700428D01*
X21244810Y-16681381D01*
X21244810Y-16633762D01*
X21235286Y-16614714D01*
X21225762Y-16605190D01*
X21206714Y-16595667D01*
X21168619Y-16595667D01*
X21149571Y-16605190D01*
X21140048Y-16614714D01*
X21130524Y-16633762D01*
X21416238Y-16519476D02*
X21378143Y-16519476D01*
X21359095Y-16529000D01*
X21349571Y-16538524D01*
X21330524Y-16567095D01*
X21321000Y-16605190D01*
X21321000Y-16681381D01*
X21330524Y-16700428D01*
X21340048Y-16709952D01*
X21359095Y-16719476D01*
X21397190Y-16719476D01*
X21416238Y-16709952D01*
X21425762Y-16700428D01*
X21435286Y-16681381D01*
X21435286Y-16633762D01*
X21425762Y-16614714D01*
X21416238Y-16605190D01*
X21397190Y-16595667D01*
X21359095Y-16595667D01*
X21340048Y-16605190D01*
X21330524Y-16614714D01*
X21321000Y-16633762D01*
X21511476Y-16519476D02*
X21511476Y-16557571D01*
X21587667Y-16519476D02*
X21587667Y-16557571D01*
X21882905Y-16795667D02*
X21873381Y-16786143D01*
X21854333Y-16757571D01*
X21844810Y-16738524D01*
X21835286Y-16709952D01*
X21825762Y-16662333D01*
X21825762Y-16624238D01*
X21835286Y-16576619D01*
X21844810Y-16548048D01*
X21854333Y-16529000D01*
X21873381Y-16500428D01*
X21882905Y-16490905D01*
X22044810Y-16586143D02*
X22044810Y-16719476D01*
X21997190Y-16509952D02*
X21949571Y-16652809D01*
X22073381Y-16652809D01*
X22301952Y-16719476D02*
X22301952Y-16519476D01*
X22387667Y-16719476D02*
X22387667Y-16614714D01*
X22378143Y-16595667D01*
X22359095Y-16586143D01*
X22330524Y-16586143D01*
X22311476Y-16595667D01*
X22301952Y-16605190D01*
X22511476Y-16719476D02*
X22492428Y-16709952D01*
X22482905Y-16700428D01*
X22473381Y-16681381D01*
X22473381Y-16624238D01*
X22482905Y-16605190D01*
X22492428Y-16595667D01*
X22511476Y-16586143D01*
X22540048Y-16586143D01*
X22559095Y-16595667D01*
X22568619Y-16605190D01*
X22578143Y-16624238D01*
X22578143Y-16681381D01*
X22568619Y-16700428D01*
X22559095Y-16709952D01*
X22540048Y-16719476D01*
X22511476Y-16719476D01*
X22692428Y-16719476D02*
X22673381Y-16709952D01*
X22663857Y-16690905D01*
X22663857Y-16519476D01*
X22844809Y-16709952D02*
X22825762Y-16719476D01*
X22787667Y-16719476D01*
X22768619Y-16709952D01*
X22759095Y-16690905D01*
X22759095Y-16614714D01*
X22768619Y-16595667D01*
X22787667Y-16586143D01*
X22825762Y-16586143D01*
X22844809Y-16595667D01*
X22854333Y-16614714D01*
X22854333Y-16633762D01*
X22759095Y-16652809D01*
X22930524Y-16709952D02*
X22949571Y-16719476D01*
X22987667Y-16719476D01*
X23006714Y-16709952D01*
X23016238Y-16690905D01*
X23016238Y-16681381D01*
X23006714Y-16662333D01*
X22987667Y-16652809D01*
X22959095Y-16652809D01*
X22940048Y-16643286D01*
X22930524Y-16624238D01*
X22930524Y-16614714D01*
X22940048Y-16595667D01*
X22959095Y-16586143D01*
X22987667Y-16586143D01*
X23006714Y-16595667D01*
X23082905Y-16795667D02*
X23092428Y-16786143D01*
X23111476Y-16757571D01*
X23121000Y-16738524D01*
X23130524Y-16709952D01*
X23140048Y-16662333D01*
X23140048Y-16624238D01*
X23130524Y-16576619D01*
X23121000Y-16548048D01*
X23111476Y-16529000D01*
X23092428Y-16500428D01*
X23082905Y-16490905D01*
X18211000Y-16849000D02*
X18211000Y-17049000D01*
X18111000Y-16949000D02*
X18311000Y-16949000D01*
X18549571Y-16839476D02*
X18673381Y-16839476D01*
X18606714Y-16915667D01*
X18635286Y-16915667D01*
X18654333Y-16925190D01*
X18663857Y-16934714D01*
X18673381Y-16953762D01*
X18673381Y-17001381D01*
X18663857Y-17020429D01*
X18654333Y-17029952D01*
X18635286Y-17039476D01*
X18578143Y-17039476D01*
X18559095Y-17029952D01*
X18549571Y-17020429D01*
X18759095Y-17020429D02*
X18768619Y-17029952D01*
X18759095Y-17039476D01*
X18749571Y-17029952D01*
X18759095Y-17020429D01*
X18759095Y-17039476D01*
X18844810Y-16858524D02*
X18854333Y-16849000D01*
X18873381Y-16839476D01*
X18921000Y-16839476D01*
X18940048Y-16849000D01*
X18949571Y-16858524D01*
X18959095Y-16877571D01*
X18959095Y-16896619D01*
X18949571Y-16925190D01*
X18835286Y-17039476D01*
X18959095Y-17039476D01*
X19082905Y-16839476D02*
X19101952Y-16839476D01*
X19121000Y-16849000D01*
X19130524Y-16858524D01*
X19140048Y-16877571D01*
X19149571Y-16915667D01*
X19149571Y-16963286D01*
X19140048Y-17001381D01*
X19130524Y-17020429D01*
X19121000Y-17029952D01*
X19101952Y-17039476D01*
X19082905Y-17039476D01*
X19063857Y-17029952D01*
X19054333Y-17020429D01*
X19044810Y-17001381D01*
X19035286Y-16963286D01*
X19035286Y-16915667D01*
X19044810Y-16877571D01*
X19054333Y-16858524D01*
X19063857Y-16849000D01*
X19082905Y-16839476D01*
X19273381Y-16839476D02*
X19292429Y-16839476D01*
X19311476Y-16849000D01*
X19321000Y-16858524D01*
X19330524Y-16877571D01*
X19340048Y-16915667D01*
X19340048Y-16963286D01*
X19330524Y-17001381D01*
X19321000Y-17020429D01*
X19311476Y-17029952D01*
X19292429Y-17039476D01*
X19273381Y-17039476D01*
X19254333Y-17029952D01*
X19244810Y-17020429D01*
X19235286Y-17001381D01*
X19225762Y-16963286D01*
X19225762Y-16915667D01*
X19235286Y-16877571D01*
X19244810Y-16858524D01*
X19254333Y-16849000D01*
X19273381Y-16839476D01*
X19425762Y-17039476D02*
X19425762Y-16906143D01*
X19425762Y-16925190D02*
X19435286Y-16915667D01*
X19454333Y-16906143D01*
X19482905Y-16906143D01*
X19501952Y-16915667D01*
X19511476Y-16934714D01*
X19511476Y-17039476D01*
X19511476Y-16934714D02*
X19521000Y-16915667D01*
X19540048Y-16906143D01*
X19568619Y-16906143D01*
X19587667Y-16915667D01*
X19597190Y-16934714D01*
X19597190Y-17039476D01*
X19692429Y-17039476D02*
X19692429Y-16906143D01*
X19692429Y-16925190D02*
X19701952Y-16915667D01*
X19721000Y-16906143D01*
X19749571Y-16906143D01*
X19768619Y-16915667D01*
X19778143Y-16934714D01*
X19778143Y-17039476D01*
X19778143Y-16934714D02*
X19787667Y-16915667D01*
X19806714Y-16906143D01*
X19835286Y-16906143D01*
X19854333Y-16915667D01*
X19863857Y-16934714D01*
X19863857Y-17039476D01*
X20254333Y-16829952D02*
X20082905Y-17087095D01*
X20511476Y-16839476D02*
X20530524Y-16839476D01*
X20549571Y-16849000D01*
X20559095Y-16858524D01*
X20568619Y-16877571D01*
X20578143Y-16915667D01*
X20578143Y-16963286D01*
X20568619Y-17001381D01*
X20559095Y-17020429D01*
X20549571Y-17029952D01*
X20530524Y-17039476D01*
X20511476Y-17039476D01*
X20492429Y-17029952D01*
X20482905Y-17020429D01*
X20473381Y-17001381D01*
X20463857Y-16963286D01*
X20463857Y-16915667D01*
X20473381Y-16877571D01*
X20482905Y-16858524D01*
X20492429Y-16849000D01*
X20511476Y-16839476D01*
X20663857Y-17020429D02*
X20673381Y-17029952D01*
X20663857Y-17039476D01*
X20654333Y-17029952D01*
X20663857Y-17020429D01*
X20663857Y-17039476D01*
X20863857Y-17039476D02*
X20749571Y-17039476D01*
X20806714Y-17039476D02*
X20806714Y-16839476D01*
X20787667Y-16868048D01*
X20768619Y-16887095D01*
X20749571Y-16896619D01*
X20940048Y-16858524D02*
X20949571Y-16849000D01*
X20968619Y-16839476D01*
X21016238Y-16839476D01*
X21035286Y-16849000D01*
X21044810Y-16858524D01*
X21054333Y-16877571D01*
X21054333Y-16896619D01*
X21044810Y-16925190D01*
X20930524Y-17039476D01*
X21054333Y-17039476D01*
X21225762Y-16839476D02*
X21187667Y-16839476D01*
X21168619Y-16849000D01*
X21159095Y-16858524D01*
X21140048Y-16887095D01*
X21130524Y-16925190D01*
X21130524Y-17001381D01*
X21140048Y-17020429D01*
X21149571Y-17029952D01*
X21168619Y-17039476D01*
X21206714Y-17039476D01*
X21225762Y-17029952D01*
X21235286Y-17020429D01*
X21244810Y-17001381D01*
X21244810Y-16953762D01*
X21235286Y-16934714D01*
X21225762Y-16925190D01*
X21206714Y-16915667D01*
X21168619Y-16915667D01*
X21149571Y-16925190D01*
X21140048Y-16934714D01*
X21130524Y-16953762D01*
X21368619Y-16839476D02*
X21387667Y-16839476D01*
X21406714Y-16849000D01*
X21416238Y-16858524D01*
X21425762Y-16877571D01*
X21435286Y-16915667D01*
X21435286Y-16963286D01*
X21425762Y-17001381D01*
X21416238Y-17020429D01*
X21406714Y-17029952D01*
X21387667Y-17039476D01*
X21368619Y-17039476D01*
X21349571Y-17029952D01*
X21340048Y-17020429D01*
X21330524Y-17001381D01*
X21321000Y-16963286D01*
X21321000Y-16915667D01*
X21330524Y-16877571D01*
X21340048Y-16858524D01*
X21349571Y-16849000D01*
X21368619Y-16839476D01*
X21511476Y-16839476D02*
X21511476Y-16877571D01*
X21587667Y-16839476D02*
X21587667Y-16877571D01*
X21882905Y-17115667D02*
X21873381Y-17106143D01*
X21854333Y-17077571D01*
X21844810Y-17058524D01*
X21835286Y-17029952D01*
X21825762Y-16982333D01*
X21825762Y-16944238D01*
X21835286Y-16896619D01*
X21844810Y-16868048D01*
X21854333Y-16849000D01*
X21873381Y-16820429D01*
X21882905Y-16810905D01*
X22044810Y-16839476D02*
X22006714Y-16839476D01*
X21987667Y-16849000D01*
X21978143Y-16858524D01*
X21959095Y-16887095D01*
X21949571Y-16925190D01*
X21949571Y-17001381D01*
X21959095Y-17020429D01*
X21968619Y-17029952D01*
X21987667Y-17039476D01*
X22025762Y-17039476D01*
X22044810Y-17029952D01*
X22054333Y-17020429D01*
X22063857Y-17001381D01*
X22063857Y-16953762D01*
X22054333Y-16934714D01*
X22044810Y-16925190D01*
X22025762Y-16915667D01*
X21987667Y-16915667D01*
X21968619Y-16925190D01*
X21959095Y-16934714D01*
X21949571Y-16953762D01*
X22301952Y-17039476D02*
X22301952Y-16839476D01*
X22387667Y-17039476D02*
X22387667Y-16934714D01*
X22378143Y-16915667D01*
X22359095Y-16906143D01*
X22330524Y-16906143D01*
X22311476Y-16915667D01*
X22301952Y-16925190D01*
X22511476Y-17039476D02*
X22492428Y-17029952D01*
X22482905Y-17020429D01*
X22473381Y-17001381D01*
X22473381Y-16944238D01*
X22482905Y-16925190D01*
X22492428Y-16915667D01*
X22511476Y-16906143D01*
X22540048Y-16906143D01*
X22559095Y-16915667D01*
X22568619Y-16925190D01*
X22578143Y-16944238D01*
X22578143Y-17001381D01*
X22568619Y-17020429D01*
X22559095Y-17029952D01*
X22540048Y-17039476D01*
X22511476Y-17039476D01*
X22692428Y-17039476D02*
X22673381Y-17029952D01*
X22663857Y-17010905D01*
X22663857Y-16839476D01*
X22844809Y-17029952D02*
X22825762Y-17039476D01*
X22787667Y-17039476D01*
X22768619Y-17029952D01*
X22759095Y-17010905D01*
X22759095Y-16934714D01*
X22768619Y-16915667D01*
X22787667Y-16906143D01*
X22825762Y-16906143D01*
X22844809Y-16915667D01*
X22854333Y-16934714D01*
X22854333Y-16953762D01*
X22759095Y-16972810D01*
X22930524Y-17029952D02*
X22949571Y-17039476D01*
X22987667Y-17039476D01*
X23006714Y-17029952D01*
X23016238Y-17010905D01*
X23016238Y-17001381D01*
X23006714Y-16982333D01*
X22987667Y-16972810D01*
X22959095Y-16972810D01*
X22940048Y-16963286D01*
X22930524Y-16944238D01*
X22930524Y-16934714D01*
X22940048Y-16915667D01*
X22959095Y-16906143D01*
X22987667Y-16906143D01*
X23006714Y-16915667D01*
X23082905Y-17115667D02*
X23092428Y-17106143D01*
X23111476Y-17077571D01*
X23121000Y-17058524D01*
X23130524Y-17029952D01*
X23140048Y-16982333D01*
X23140048Y-16944238D01*
X23130524Y-16896619D01*
X23121000Y-16868048D01*
X23111476Y-16849000D01*
X23092428Y-16820429D01*
X23082905Y-16810905D01*
M02*
